<?xml version="1.0" encoding="UTF-8"?>
<svg version="1.1" xmlns="http://www.w3.org/2000/svg" width="192" height="192">
<path d="M0 0 C5.41110928 4.20347974 7.11643128 9.70007748 8.0078125 16.28515625 C8.44290047 24.5654241 5.63507945 32.46762437 2.9140625 40.1953125 C2.43083977 42.39632693 2.43083977 42.39632693 5.1328125 45.1015625 C5.9784375 46.0503125 6.8240625 46.9990625 7.6953125 47.9765625 C7.6953125 48.6365625 7.6953125 49.2965625 7.6953125 49.9765625 C8.6853125 50.3065625 9.6753125 50.6365625 10.6953125 50.9765625 C12.08203125 52.82421875 12.08203125 52.82421875 13.3828125 55.0390625 C13.81980469 55.77253906 14.25679687 56.50601563 14.70703125 57.26171875 C15.03316406 57.82761719 15.35929688 58.39351562 15.6953125 58.9765625 C16.26378906 58.88117188 16.83226562 58.78578125 17.41796875 58.6875 C22.82499605 57.91119892 26.55605878 58.11768349 31.6953125 59.9765625 C31.6953125 60.6365625 31.6953125 61.2965625 31.6953125 61.9765625 C32.3140625 62.2034375 32.9328125 62.4303125 33.5703125 62.6640625 C35.6953125 63.9765625 35.6953125 63.9765625 37.0703125 66.0390625 C38.18388516 71.27285401 36.58093653 75.98390843 34.4453125 80.7890625 C32.21044523 83.58264659 29.78446266 85.20194432 26.6953125 86.9765625 C26.0353125 86.9765625 25.3753125 86.9765625 24.6953125 86.9765625 C24.73011719 88.04132813 24.76492187 89.10609375 24.80078125 90.203125 C25.25561988 110.12367187 20.38906006 126.71373477 8.6953125 142.9765625 C8.0353125 143.9665625 7.3753125 144.9565625 6.6953125 145.9765625 C6.0353125 145.9765625 5.3753125 145.9765625 4.6953125 145.9765625 C4.3653125 146.9665625 4.0353125 147.9565625 3.6953125 148.9765625 C3.0353125 148.9765625 2.3753125 148.9765625 1.6953125 148.9765625 C1.3653125 149.9665625 1.0353125 150.9565625 0.6953125 151.9765625 C0.0353125 151.9765625 -0.6246875 151.9765625 -1.3046875 151.9765625 C-1.6346875 152.9665625 -1.9646875 153.9565625 -2.3046875 154.9765625 C-21.06759526 173.36700559 -46.11423577 177.86987262 -71.3046875 177.9765625 C-75.88429641 177.73291383 -80.34876349 177.24617556 -84.6796875 175.6640625 C-85.41574219 175.39851562 -86.15179688 175.13296875 -86.91015625 174.859375 C-88.09544922 174.42238281 -88.09544922 174.42238281 -89.3046875 173.9765625 C-90.69107422 173.50863281 -90.69107422 173.50863281 -92.10546875 173.03125 C-97.34895861 171.22902209 -101.97447171 169.48754828 -106.3046875 165.9765625 C-106.3046875 165.3165625 -106.3046875 164.6565625 -106.3046875 163.9765625 C-107.03945312 163.87601563 -107.77421875 163.77546875 -108.53125 163.671875 C-119.80930435 160.84441912 -129.47053024 147.133064 -135.25878906 137.81494141 C-138.28588189 132.49421101 -140.32830367 126.75109893 -142.3046875 120.9765625 C-142.68753906 119.88794922 -142.68753906 119.88794922 -143.078125 118.77734375 C-148.66133276 100.12619319 -144.22715482 79.71347832 -135.3046875 62.9765625 C-134.30440996 61.62773956 -133.2873605 60.29090335 -132.2421875 58.9765625 C-129.59336017 55.13619148 -130.39490496 51.36244069 -131.0546875 46.9765625 C-131.17706787 46.31140625 -131.29944824 45.64625 -131.42553711 44.9609375 C-133.12985328 35.65759173 -131.20720285 26.07733016 -126.0703125 18.046875 C-123.23470552 14.52862189 -120.3400954 11.32738591 -115.7890625 10.54296875 C-109.43614071 10.53389315 -104.45025011 11.04172051 -99.3046875 14.9765625 C-96.77778421 17.50346579 -94.49585435 20.15543518 -92.3046875 22.9765625 C-91.2528125 22.7084375 -90.2009375 22.4403125 -89.1171875 22.1640625 C-69.97953889 17.40514455 -53.66462573 15.42128292 -34.3046875 19.9765625 C-34.16933594 19.20957031 -34.03398438 18.44257813 -33.89453125 17.65234375 C-33.21969149 14.59098457 -32.12125998 12.51976397 -30.3046875 9.9765625 C-29.6446875 9.9765625 -28.9846875 9.9765625 -28.3046875 9.9765625 C-28.3046875 9.3165625 -28.3046875 8.6565625 -28.3046875 7.9765625 C-26.22265625 6.06640625 -26.22265625 6.06640625 -23.4921875 3.9140625 C-22.59886719 3.20121094 -21.70554687 2.48835937 -20.78515625 1.75390625 C-15.19064388 -2.2547601 -6.29073341 -2.79351213 0 0 Z " fill="#413C36" transform="translate(151.3046875,7.0234375)"/>
<path d="M0 0 C3.5348111 3.07461871 5.76140902 6.7672395 8.0703125 10.80078125 C8.67359375 11.76951172 8.67359375 11.76951172 9.2890625 12.7578125 C14.33700429 21.03283137 14.19736324 30.9916397 12.38671875 40.32421875 C10.45936526 47.18591708 7.98844049 52.6195906 3.0703125 57.80078125 C2.20792969 58.72310547 2.20792969 58.72310547 1.328125 59.6640625 C-5.94726722 66.7130421 -14.34037633 70.04368861 -24.4296875 70.42578125 C-34.41020238 70.04780883 -42.90542609 66.74257959 -50.1796875 59.83203125 C-53.34014099 56.16364773 -55.68256366 52.07317912 -57.9296875 47.80078125 C-58.29320313 47.16527344 -58.65671875 46.52976563 -59.03125 45.875 C-62.71411877 37.37237688 -61.96264324 25.72493239 -58.9609375 17.13671875 C-54.50841574 7.05108235 -46.80148568 -0.76671663 -36.8515625 -5.5078125 C-24.22464769 -10.05042209 -10.74026299 -7.5406376 0 0 Z " fill="#716257" transform="translate(143.9296875,64.19921875)"/>
<path d="M0 0 C5.41110928 4.20347974 7.11643128 9.70007748 8.0078125 16.28515625 C8.44290047 24.5654241 5.63507945 32.46762437 2.9140625 40.1953125 C2.43083977 42.39632693 2.43083977 42.39632693 5.1328125 45.1015625 C5.9784375 46.0503125 6.8240625 46.9990625 7.6953125 47.9765625 C7.6953125 48.6365625 7.6953125 49.2965625 7.6953125 49.9765625 C8.6853125 50.3065625 9.6753125 50.6365625 10.6953125 50.9765625 C12.08203125 52.82421875 12.08203125 52.82421875 13.3828125 55.0390625 C13.81980469 55.77253906 14.25679687 56.50601563 14.70703125 57.26171875 C15.03316406 57.82761719 15.35929688 58.39351562 15.6953125 58.9765625 C16.26378906 58.88117188 16.83226562 58.78578125 17.41796875 58.6875 C22.82499605 57.91119892 26.55605878 58.11768349 31.6953125 59.9765625 C31.6953125 60.6365625 31.6953125 61.2965625 31.6953125 61.9765625 C32.3140625 62.2034375 32.9328125 62.4303125 33.5703125 62.6640625 C35.6953125 63.9765625 35.6953125 63.9765625 37.0703125 66.0390625 C38.18388516 71.27285401 36.58093653 75.98390843 34.4453125 80.7890625 C32.21044523 83.58264659 29.78446266 85.20194432 26.6953125 86.9765625 C26.0353125 86.9765625 25.3753125 86.9765625 24.6953125 86.9765625 C24.73011719 88.04132813 24.76492187 89.10609375 24.80078125 90.203125 C25.25561988 110.12367187 20.38906006 126.71373477 8.6953125 142.9765625 C8.0353125 143.9665625 7.3753125 144.9565625 6.6953125 145.9765625 C6.0353125 145.9765625 5.3753125 145.9765625 4.6953125 145.9765625 C4.3653125 146.9665625 4.0353125 147.9565625 3.6953125 148.9765625 C3.0353125 148.9765625 2.3753125 148.9765625 1.6953125 148.9765625 C1.3653125 149.9665625 1.0353125 150.9565625 0.6953125 151.9765625 C0.0353125 151.9765625 -0.6246875 151.9765625 -1.3046875 151.9765625 C-1.6346875 152.9665625 -1.9646875 153.9565625 -2.3046875 154.9765625 C-21.06759526 173.36700559 -46.11423577 177.86987262 -71.3046875 177.9765625 C-75.88429641 177.73291383 -80.34876349 177.24617556 -84.6796875 175.6640625 C-85.41574219 175.39851562 -86.15179688 175.13296875 -86.91015625 174.859375 C-88.09544922 174.42238281 -88.09544922 174.42238281 -89.3046875 173.9765625 C-90.69107422 173.50863281 -90.69107422 173.50863281 -92.10546875 173.03125 C-97.34895861 171.22902209 -101.97447171 169.48754828 -106.3046875 165.9765625 C-106.3046875 165.3165625 -106.3046875 164.6565625 -106.3046875 163.9765625 C-107.03945312 163.87601563 -107.77421875 163.77546875 -108.53125 163.671875 C-119.80930435 160.84441912 -129.47053024 147.133064 -135.25878906 137.81494141 C-138.28588189 132.49421101 -140.32830367 126.75109893 -142.3046875 120.9765625 C-142.68753906 119.88794922 -142.68753906 119.88794922 -143.078125 118.77734375 C-148.66133276 100.12619319 -144.22715482 79.71347832 -135.3046875 62.9765625 C-134.30440996 61.62773956 -133.2873605 60.29090335 -132.2421875 58.9765625 C-129.59336017 55.13619148 -130.39490496 51.36244069 -131.0546875 46.9765625 C-131.17706787 46.31140625 -131.29944824 45.64625 -131.42553711 44.9609375 C-133.12985328 35.65759173 -131.20720285 26.07733016 -126.0703125 18.046875 C-124.8046875 16.4765625 -124.8046875 16.4765625 -122.3046875 13.9765625 C-121.7065625 13.3578125 -121.1084375 12.7390625 -120.4921875 12.1015625 C-117.09175887 10.35277063 -114.09442164 10.78707579 -110.3046875 10.9765625 C-110.6346875 11.9665625 -110.9646875 12.9565625 -111.3046875 13.9765625 C-113.30010618 14.65681887 -115.30086741 15.32146747 -117.3046875 15.9765625 C-122.79922645 19.19287798 -125.57578529 23.9820901 -127.3046875 29.9765625 C-128.55137212 39.54464904 -128.21796958 49.08352683 -124.1796875 57.9453125 C-123.3046875 59.9765625 -123.3046875 59.9765625 -123.3046875 62.9765625 C-123.9646875 62.9765625 -124.6246875 62.9765625 -125.3046875 62.9765625 C-125.3046875 61.3265625 -125.3046875 59.6765625 -125.3046875 57.9765625 C-125.9646875 57.9765625 -126.6246875 57.9765625 -127.3046875 57.9765625 C-127.5521875 58.8428125 -127.7996875 59.7090625 -128.0546875 60.6015625 C-129.3046875 63.9765625 -129.3046875 63.9765625 -131.21484375 66.7109375 C-133.45421039 70.21020949 -134.77373375 73.66803335 -135.9921875 77.6015625 C-136.31026367 78.58382812 -136.31026367 78.58382812 -136.63476562 79.5859375 C-142.55076055 98.02443273 -139.54843815 116.73297756 -131.3046875 133.9765625 C-122.57886245 150.31716034 -104.98090885 158.68677959 -88.3046875 164.9765625 C-69.42655568 169.87645058 -42.76871005 170.19400471 -25.4296875 160.4140625 C-22.76523145 158.72608966 -20.53246354 157.20433854 -18.3046875 154.9765625 C-16.53384651 153.97845213 -14.76254132 152.98109459 -12.984375 151.99609375 C-11.13899746 150.8759925 -9.78587547 149.53570773 -8.3046875 147.9765625 C-7.6446875 147.9765625 -6.9846875 147.9765625 -6.3046875 147.9765625 C-5.9746875 146.9865625 -5.6446875 145.9965625 -5.3046875 144.9765625 C-3.80859375 143.64453125 -3.80859375 143.64453125 -1.8671875 142.1640625 C6.20500818 135.32814904 12.45892687 125.60471165 16.6953125 115.9765625 C17.3553125 115.9765625 18.0153125 115.9765625 18.6953125 115.9765625 C19.3553125 106.0765625 20.0153125 96.1765625 20.6953125 85.9765625 C17.7253125 85.4815625 17.7253125 85.4815625 14.6953125 84.9765625 C12.3203125 83.4140625 12.3203125 83.4140625 10.6953125 81.9765625 C10.71851563 83.03617187 10.74171875 84.09578125 10.765625 85.1875 C10.78438194 86.5755138 10.80258222 87.9635352 10.8203125 89.3515625 C10.83707031 90.05023438 10.85382813 90.74890625 10.87109375 91.46875 C10.88875517 93.30553736 10.79834511 95.14258213 10.6953125 96.9765625 C10.0353125 97.6365625 9.3753125 98.2965625 8.6953125 98.9765625 C8.52853968 102.56000226 8.52853968 102.56000226 8.6953125 105.9765625 C8.09203125 106.05648437 7.48875 106.13640625 6.8671875 106.21875 C3.98285106 107.22515516 3.45423613 108.48313621 1.9453125 111.1015625 C-3.24296268 119.32177683 -10.97608936 125.74484626 -20.4921875 128.2265625 C-33.95116107 130.7672871 -44.79379088 128.01099932 -56.3046875 120.9765625 C-56.3046875 120.3165625 -56.3046875 119.6565625 -56.3046875 118.9765625 C-56.9028125 118.6878125 -57.5009375 118.3990625 -58.1171875 118.1015625 C-63.12459271 115.52632553 -63.12459271 115.52632553 -64.4921875 111.3515625 C-64.894375 109.6809375 -64.894375 109.6809375 -65.3046875 107.9765625 C-65.9646875 107.9765625 -66.6246875 107.9765625 -67.3046875 107.9765625 C-67.3046875 106.9865625 -67.3046875 105.9965625 -67.3046875 104.9765625 C-66.3146875 104.9765625 -65.3246875 104.9765625 -64.3046875 104.9765625 C-62.9453125 106.953125 -62.9453125 106.953125 -61.5546875 109.6015625 C-56.33640393 118.62537482 -49.40464749 123.21777713 -39.3046875 125.9765625 C-28.04863311 127.45511202 -18.77681465 125.58138126 -9.515625 118.9921875 C-1.70760066 112.49701681 3.45717119 104.2084247 4.6953125 93.9765625 C5.49839248 81.88734061 4.07321183 73.7399153 -3 63.921875 C-4.3046875 61.9765625 -4.3046875 61.9765625 -5.3046875 58.9765625 C-7.30485216 57.76774154 -7.30485216 57.76774154 -9.3046875 56.9765625 C-9.3046875 56.3165625 -9.3046875 55.6565625 -9.3046875 54.9765625 C-7.6546875 55.6365625 -6.0046875 56.2965625 -4.3046875 56.9765625 C-4.3046875 57.6365625 -4.3046875 58.2965625 -4.3046875 58.9765625 C-3.72074219 59.19441406 -3.13679687 59.41226563 -2.53515625 59.63671875 C0.42091825 61.41243425 1.59008715 63.4858148 3.3828125 66.4140625 C3.98480469 67.38214844 4.58679688 68.35023437 5.20703125 69.34765625 C6.6953125 71.9765625 6.6953125 71.9765625 7.6953125 74.9765625 C7.9840625 74.0071875 8.2728125 73.0378125 8.5703125 72.0390625 C9.6953125 68.9765625 9.6953125 68.9765625 11.6953125 67.9765625 C11.70949219 68.72421875 11.72367188 69.471875 11.73828125 70.2421875 C11.92109989 76.39167716 11.92109989 76.39167716 14.8203125 81.6015625 C18.33575789 83.28286247 20.7773604 84.04652593 24.6953125 83.9765625 C28.025661 81.3122837 31.29241845 78.24125118 32.06640625 73.890625 C32.18828808 69.68928668 32.02368427 67.50619439 29.7578125 63.8515625 C26.01022572 61.55712161 24.1000761 61.73561976 19.87890625 62.38671875 C17.62351247 62.9959575 15.74106065 63.85859129 13.6953125 64.9765625 C13.47359375 64.40550781 13.251875 63.83445312 13.0234375 63.24609375 C5.53110836 46.17118422 -10.50543141 34.89023058 -27.3046875 27.9765625 C-32.56623557 26.07447298 -37.92150267 24.49364186 -43.3046875 22.9765625 C-43.3046875 22.6465625 -43.3046875 22.3165625 -43.3046875 21.9765625 C-38.11259346 21.76464029 -34.1779485 22.3852936 -29.3046875 23.9765625 C-28.3146875 22.4915625 -28.3146875 22.4915625 -27.3046875 20.9765625 C-26.8096875 22.9565625 -26.8096875 22.9565625 -26.3046875 24.9765625 C-25.71824463 25.09894287 -25.13180176 25.22132324 -24.52758789 25.34741211 C-22.27963442 25.98365331 -20.70537021 26.79990212 -18.73828125 28.04296875 C-18.08794922 28.44580078 -17.43761719 28.84863281 -16.76757812 29.26367188 C-15.41275884 30.11680302 -14.05859576 30.97097713 -12.70507812 31.82617188 C-8.80327004 34.32617395 -8.80327004 34.32617395 -4.3046875 34.9765625 C-4.2015625 35.6159375 -4.0984375 36.2553125 -3.9921875 36.9140625 C-3.7653125 37.5946875 -3.5384375 38.2753125 -3.3046875 38.9765625 C-2.3146875 39.3065625 -1.3246875 39.6365625 -0.3046875 39.9765625 C1.29356875 33.36948533 1.91005475 26.9386917 1.9453125 20.1640625 C1.95433594 19.44742432 1.96335938 18.73078613 1.97265625 17.99243164 C1.94822091 13.61799752 1.42211728 10.00376105 -0.3046875 5.9765625 C-3.6352024 3.03787288 -6.77306235 2.42911292 -11.19921875 2.63671875 C-18.87596332 3.87582223 -24.55785005 9.09484897 -29.3046875 14.9765625 C-30.61867002 17.31008999 -31.45325423 19.4222627 -32.3046875 21.9765625 C-32.9646875 21.6465625 -33.6246875 21.3165625 -34.3046875 20.9765625 C-33.79826558 16.62133397 -32.92057253 13.53416615 -30.3046875 9.9765625 C-29.6446875 9.9765625 -28.9846875 9.9765625 -28.3046875 9.9765625 C-28.3046875 9.3165625 -28.3046875 8.6565625 -28.3046875 7.9765625 C-26.22265625 6.06640625 -26.22265625 6.06640625 -23.4921875 3.9140625 C-22.59886719 3.20121094 -21.70554687 2.48835937 -20.78515625 1.75390625 C-15.19064388 -2.2547601 -6.29073341 -2.79351213 0 0 Z " fill="#100D0A" transform="translate(151.3046875,7.0234375)"/>
<path d="M0 0 C-0.33 0.99 -0.66 1.98 -1 3 C-2.99541868 3.68025637 -4.99617991 4.34490497 -7 5 C-12.49453895 8.21631548 -15.27109779 13.0055276 -17 19 C-18.24668462 28.56808654 -17.91328208 38.10696433 -13.875 46.96875 C-13 49 -13 49 -13 52 C-13.66 52 -14.32 52 -15 52 C-15 50.35 -15 48.7 -15 47 C-15.66 47 -16.32 47 -17 47 C-17.2475 47.86625 -17.495 48.7325 -17.75 49.625 C-19 53 -19 53 -20.91015625 55.734375 C-23.14952289 59.23364699 -24.46904625 62.69147085 -25.6875 66.625 C-26.00557617 67.60726562 -26.00557617 67.60726562 -26.33007812 68.609375 C-32.24607305 87.04787023 -29.24375065 105.75641506 -21 123 C-12.27417495 139.34059784 5.32377865 147.71021709 22 154 C40.87813182 158.89988808 67.53597745 159.21744221 84.875 149.4375 C87.53945605 147.74952716 89.77222396 146.22777604 92 144 C93.77084099 143.00188963 95.54214618 142.00453209 97.3203125 141.01953125 C99.16569004 139.89943 100.51881203 138.55914523 102 137 C102.66 137 103.32 137 104 137 C104.33 136.01 104.66 135.02 105 134 C106.49609375 132.66796875 106.49609375 132.66796875 108.4375 131.1875 C116.50969568 124.35158654 122.76361437 114.62814915 127 105 C127.82422508 107.35717874 128.15185353 108.57799821 127.29296875 110.96484375 C126.92816406 111.61582031 126.56335938 112.26679688 126.1875 112.9375 C125.00922261 115.07711561 123.97098226 117.07960271 123.1328125 119.37890625 C121.72437124 122.63774792 119.83249726 125.17365066 117.6875 128 C116.92824219 129.010625 116.16898438 130.02125 115.38671875 131.0625 C113 134 113 134 110.26953125 136.6875 C107.80160282 138.86384711 107.80160282 138.86384711 107 142 C104.86328125 143.41796875 104.86328125 143.41796875 102 145 C100.41251953 146.01513672 100.41251953 146.01513672 98.79296875 147.05078125 C77.27786718 160.66213154 53.18577484 166.16700644 28 161 C23.27904013 159.84246248 18.63300289 158.47056794 14 157 C24.24893951 162.34137853 35.5536224 164.23514988 47 165 C41.87707962 168.41528025 35.90711811 166.78934108 30 166 C26.8715789 165.25766279 23.9831919 164.18697424 21 163 C20.0821875 162.68804687 19.164375 162.37609375 18.21875 162.0546875 C12.96533495 160.2611829 8.33486167 158.51475271 4 155 C4 154.34 4 153.68 4 153 C3.26523437 152.89945313 2.53046875 152.79890625 1.7734375 152.6953125 C-9.50461685 149.86785662 -19.16584274 136.1565015 -24.95410156 126.83837891 C-27.98119439 121.51764851 -30.02361617 115.77453643 -32 110 C-32.38285156 108.91138672 -32.38285156 108.91138672 -32.7734375 107.80078125 C-38.35664526 89.14963069 -33.92246732 68.73691582 -25 52 C-23.99972246 50.65117706 -22.982673 49.31434085 -21.9375 48 C-19.28867267 44.15962898 -20.09021746 40.38587819 -20.75 36 C-20.87238037 35.33484375 -20.99476074 34.6696875 -21.12084961 33.984375 C-22.82516578 24.68102923 -20.90251535 15.10076766 -15.765625 7.0703125 C-14.5 5.5 -14.5 5.5 -12 3 C-11.1028125 2.071875 -11.1028125 2.071875 -10.1875 1.125 C-6.78707137 -0.62379187 -3.78973414 -0.18948671 0 0 Z " fill="#26211C" transform="translate(41,18)"/>
<path d="M0 0 C3.97738337 3.59858495 4.52107442 7.02126814 4.92578125 12.29296875 C4.94432924 13.71603032 4.94773961 15.13935439 4.9375 16.5625 C4.93621094 17.30556396 4.93492187 18.04862793 4.93359375 18.81420898 C4.82677174 24.98384745 3.73509493 30.55967885 1.625 36.375 C-0.3125 36.0625 -0.3125 36.0625 -2.375 35.375 C-2.705 34.385 -3.035 33.395 -3.375 32.375 C-5.02133386 31.6595931 -6.69367046 31.00377118 -8.375 30.375 C-10.61151946 29.05095882 -12.81078487 27.70949915 -15 26.3125 C-19.48272343 23.44683463 -19.48272343 23.44683463 -24.375 21.375 C-24.87 19.89 -24.87 19.89 -25.375 18.375 C-26.365 19.365 -27.355 20.355 -28.375 21.375 C-29.2 21.024375 -30.025 20.67375 -30.875 20.3125 C-34.0801716 19.45397189 -35.42767206 19.34893949 -38.5625 19.8125 C-42.375 20.375 -42.375 20.375 -45.375 19.375 C-59.74786577 18.45115696 -73.50380621 20.78223584 -87.375 24.375 C-87.375 25.035 -87.375 25.695 -87.375 26.375 C-86.385 26.375 -85.395 26.375 -84.375 26.375 C-85.035 27.695 -85.695 29.015 -86.375 30.375 C-87.875 29 -87.875 29 -89.375 27.375 C-89.375 26.715 -89.375 26.055 -89.375 25.375 C-90.035 25.375 -90.695 25.375 -91.375 25.375 C-92.9609375 23.765625 -92.9609375 23.765625 -94.75 21.625 C-95.37261719 20.89539063 -95.99523437 20.16578125 -96.63671875 19.4140625 C-97.49716797 18.40472656 -97.49716797 18.40472656 -98.375 17.375 C-100.89565758 14.63828605 -102.94734324 12.84399576 -106.375 11.375 C-106.045 10.055 -105.715 8.735 -105.375 7.375 C-98.65271151 10.20543726 -94.83287426 13.63548688 -90.375 19.375 C-89.323125 19.106875 -88.27125 18.83875 -87.1875 18.5625 C-69.29831426 14.11403463 -53.55696735 11.64128118 -35.359375 15.71875 C-32.55872409 16.44658808 -32.55872409 16.44658808 -30.375 16.375 C-29.9109375 15.1684375 -29.9109375 15.1684375 -29.4375 13.9375 C-26.45188 7.99455972 -20.81957603 2.21246774 -14.8125 -0.6875 C-9.30739646 -2.18889187 -5.32849639 -2.56557234 0 0 Z " fill="#201C18" transform="translate(149.375,10.625)"/>
<path d="M0 0 C2 2 2 2 2.0625 5.625 C1.15462649 11.12212424 -1.64644365 14.63621429 -6 18 C-11.53315692 20.77666319 -16.76669061 23 -23 23 C-22.67 23.66 -22.34 24.32 -22 25 C-21.85166349 27.1423215 -21.77872587 29.29024129 -21.75 31.4375 C-21.72421875 32.59121094 -21.6984375 33.74492188 -21.671875 34.93359375 C-22 38 -22 38 -23.328125 39.8828125 C-25.97012169 41.64825889 -27.91764802 41.44950966 -31 41 C-33.77925335 38.22074665 -34.94200402 35.47309781 -35.09765625 31.51953125 C-35.08605469 30.62621094 -35.07445313 29.73289062 -35.0625 28.8125 C-35.05347656 27.91144531 -35.04445313 27.01039062 -35.03515625 26.08203125 C-35.02355469 25.39496094 -35.01195313 24.70789063 -35 24 C-35.886875 23.938125 -36.77375 23.87625 -37.6875 23.8125 C-41.83809163 22.79443036 -43.36081713 21.3178299 -46 18 C-47.125 15.5625 -47.125 15.5625 -47 13 C-45.38241861 10.37549044 -44.40088458 8.80013615 -42 7 C-38.9610651 6.38032056 -36.07442978 6.67479595 -33 6.9375 C-20.72102873 7.50142662 -11.2031224 -0.81477254 0 0 Z " fill="#332921" transform="translate(142,89)"/>
<path d="M0 0 C-0.33 0.99 -0.66 1.98 -1 3 C-2.99541868 3.68025637 -4.99617991 4.34490497 -7 5 C-12.49453895 8.21631548 -15.27109779 13.0055276 -17 19 C-18.24668462 28.56808654 -17.91328208 38.10696433 -13.875 46.96875 C-13 49 -13 49 -13 52 C-13.66 52 -14.32 52 -15 52 C-15 50.35 -15 48.7 -15 47 C-15.66 47 -16.32 47 -17 47 C-17.2475 47.86625 -17.495 48.7325 -17.75 49.625 C-19 53 -19 53 -20.91015625 55.734375 C-23.14952289 59.23364699 -24.46904625 62.69147085 -25.6875 66.625 C-26.00557617 67.60726562 -26.00557617 67.60726562 -26.33007812 68.609375 C-32.24607305 87.04787023 -29.24375065 105.75641506 -21 123 C-18.26234678 128.12672326 -15.1780348 131.93488506 -11 136 C-10.31822584 137.32567199 -9.64808564 138.65753688 -9 140 C-7.515 140.99 -7.515 140.99 -6 142 C-6 142.66 -6 143.32 -6 144 C-5.48953125 144.23460937 -4.9790625 144.46921875 -4.453125 144.7109375 C-1.08484801 146.48089197 2.06212652 148.55158635 5.25 150.625 C6.22453125 151.25535156 6.22453125 151.25535156 7.21875 151.8984375 C8.81368881 152.93045673 10.40700669 153.96498028 12 155 C9.13822943 156.43088528 7.06624227 155.59991697 4 155 C4 154.34 4 153.68 4 153 C3.26523437 152.89945313 2.53046875 152.79890625 1.7734375 152.6953125 C-9.50461685 149.86785662 -19.16584274 136.1565015 -24.95410156 126.83837891 C-27.98119439 121.51764851 -30.02361617 115.77453643 -32 110 C-32.38285156 108.91138672 -32.38285156 108.91138672 -32.7734375 107.80078125 C-38.35664526 89.14963069 -33.92246732 68.73691582 -25 52 C-23.99972246 50.65117706 -22.982673 49.31434085 -21.9375 48 C-19.28867267 44.15962898 -20.09021746 40.38587819 -20.75 36 C-20.87238037 35.33484375 -20.99476074 34.6696875 -21.12084961 33.984375 C-22.82516578 24.68102923 -20.90251535 15.10076766 -15.765625 7.0703125 C-14.5 5.5 -14.5 5.5 -12 3 C-11.1028125 2.071875 -11.1028125 2.071875 -10.1875 1.125 C-6.78707137 -0.62379187 -3.78973414 -0.18948671 0 0 Z " fill="#120F0B" transform="translate(41,18)"/>
<path d="M0 0 C2.4375 1.375 2.4375 1.375 4 3 C4 3.66 4 4.32 4 5 C4.66 5 5.32 5 6 5 C7.5078125 6.6796875 7.5078125 6.6796875 9.125 8.875 C9.66382812 9.59429687 10.20265625 10.31359375 10.7578125 11.0546875 C12 13 12 13 12 15 C10.68 14.67 9.36 14.34 8 14 C8.33 15.32 8.66 16.64 9 18 C8.01 18 7.02 18 6 18 C5.01 20.475 5.01 20.475 4 23 C3.01 23 2.02 23 1 23 C0.67 24.32 0.34 25.64 0 27 C-0.66 27 -1.32 27 -2 27 C-2.33 27.99 -2.66 28.98 -3 30 C-3.66 30 -4.32 30 -5 30 C-5.33 30.99 -5.66 31.98 -6 33 C-6.99 32.67 -7.98 32.34 -9 32 C-12.36056951 24.15867114 -14.14735867 11.91286913 -11.17578125 3.73046875 C-8.2265576 -0.610083 -4.81776639 -0.42261109 0 0 Z " fill="#CA816D" transform="translate(45,35)"/>
<path d="M0 0 C3.62259904 1.8837515 5.68975631 4.06926894 7 8 C7.52029311 12.5546971 7.63344014 15.93672548 5.25 19.9375 C0.88588469 23.93793903 -2.78991407 24.48392457 -8.5859375 24.3984375 C-12.24267793 23.79489782 -13.82600084 21.87528922 -16 19 C-16.33 18.67 -16.66 18.34 -17 18 C-17.85273785 11.48564203 -16.79413936 7.3117951 -13 2 C-8.75417853 -0.83054764 -4.98515163 -0.77409187 0 0 Z " fill="#A6745C" transform="translate(61,98)"/>
<path d="M0 0 C2 2 2 2 2.0625 5.625 C1.26770028 10.92689569 -1.95325197 14.64027752 -6 18 C-8.23046875 18.72265625 -8.23046875 18.72265625 -10 19 C-10 17.35 -10 15.7 -10 14 C-10.99 14.99 -11.98 15.98 -13 17 C-14.33332095 14.3333581 -13.67102033 12.83319697 -13 10 C-14.65 10 -16.3 10 -18 10 C-18.69699552 11.45381897 -19.38233866 12.91322953 -20.0625 14.375 C-20.63677734 15.59316406 -20.63677734 15.59316406 -21.22265625 16.8359375 C-21.47917969 17.55007812 -21.73570313 18.26421875 -22 19 C-21.67 19.66 -21.34 20.32 -21 21 C-22.98 21.33 -24.96 21.66 -27 22 C-27.33 24.97 -27.66 27.94 -28 31 C-30.29013653 27.5647952 -30.17842973 26.014669 -30 22 C-33.96 22.495 -33.96 22.495 -38 23 C-37.79375 22.4225 -37.5875 21.845 -37.375 21.25 C-36.74771437 18.96044452 -36.74771437 18.96044452 -38.125 17.0625 C-38.41375 16.381875 -38.7025 15.70125 -39 15 C-37.67172689 12.14421282 -36.85356058 10.42678029 -34 9 C-32.1746875 8.9071875 -32.1746875 8.9071875 -30.3125 8.8125 C-19.54014689 7.75810981 -10.51526522 -0.76474656 0 0 Z " fill="#14110E" transform="translate(142,89)"/>
<path d="M0 0 C2.475 0.99 2.475 0.99 5 2 C5 2.66 5 3.32 5 4 C5.87591797 4.32677734 5.87591797 4.32677734 6.76953125 4.66015625 C9.72560575 6.43587175 10.89477465 8.5092523 12.6875 11.4375 C13.28949219 12.40558594 13.89148438 13.37367187 14.51171875 14.37109375 C16 17 16 17 17 20 C17.28875 19.030625 17.5775 18.06125 17.875 17.0625 C19 14 19 14 21 13 C21.04898438 13.75925781 21.09796875 14.51851562 21.1484375 15.30078125 C21.26058594 16.79158203 21.26058594 16.79158203 21.375 18.3125 C21.47941406 19.79169922 21.47941406 19.79169922 21.5859375 21.30078125 C21.83865472 24.21528433 21.83865472 24.21528433 24 27 C22.515 27.495 22.515 27.495 21 28 C20.67 27.67 20.34 27.34 20 27 C20.02320313 28.05960938 20.04640625 29.11921875 20.0703125 30.2109375 C20.08906944 31.5989513 20.10726972 32.9869727 20.125 34.375 C20.15013672 35.42300781 20.15013672 35.42300781 20.17578125 36.4921875 C20.19344267 38.32897486 20.10303261 40.16601963 20 42 C19.01 42.99 19.01 42.99 18 44 C17.83322718 47.58343976 17.83322718 47.58343976 18 51 C17.39671875 51.07992187 16.7934375 51.15984375 16.171875 51.2421875 C13.28753856 52.24859266 12.75892363 53.50657371 11.25 56.125 C6.06172482 64.34521433 -1.67140186 70.76828376 -11.1875 73.25 C-24.64647357 75.7907246 -35.48910338 73.03443682 -47 66 C-47 65.34 -47 64.68 -47 64 C-47.8971875 63.566875 -47.8971875 63.566875 -48.8125 63.125 C-53.81990521 60.54976303 -53.81990521 60.54976303 -55.1875 56.375 C-55.5896875 54.704375 -55.5896875 54.704375 -56 53 C-56.66 53 -57.32 53 -58 53 C-58 52.01 -58 51.02 -58 50 C-57.01 50 -56.02 50 -55 50 C-53.640625 51.9765625 -53.640625 51.9765625 -52.25 54.625 C-47.03171643 63.64881232 -40.09995999 68.24121463 -30 71 C-18.74394561 72.47854952 -9.47212715 70.60481876 -0.2109375 64.015625 C7.59708684 57.52045431 12.76185869 49.2318622 14 39 C14.80307998 26.91077811 13.37789933 18.7633528 6.3046875 8.9453125 C5 7 5 7 4 4 C1.99983534 2.79117904 1.99983534 2.79117904 0 2 C0 1.34 0 0.68 0 0 Z " fill="#191612" transform="translate(142,62)"/>
<path d="M0 0 C2.69990662 1.79993774 4.5418865 3.083773 6 6 C6.70101734 10.91713591 6.58782893 14.79168447 3.6875 18.9375 C1.87949184 21.23415902 0.51253956 22.32497363 -2 24 C-6.26901009 23.91945264 -8.73483548 23.15427754 -12.4375 21 C-15.46860348 17.45139105 -15.78111506 15.7444803 -15.45703125 11.21484375 C-14.51715841 6.66007537 -12.19640966 3.94453394 -8.625 1.125 C-5.41719802 -0.24977228 -3.45898719 -0.50443563 0 0 Z " fill="#C07E6C" transform="translate(178,68)"/>
<path d="M0 0 C3.1359157 1.77984405 3.84102736 2.52308207 5 6 C5.09475844 7.95648317 5.12988471 9.91622955 5.125 11.875 C5.12886719 13.41800781 5.12886719 13.41800781 5.1328125 14.9921875 C5.00995061 17.774648 4.62944236 20.29239874 4 23 C1.9453125 23.7734375 1.9453125 23.7734375 -1 24 C-3.5631919 22.63412677 -5.77433639 21.28778521 -8.125 19.625 C-12.80275983 16.3303358 -12.80275983 16.3303358 -18 14 C-16.94679925 8.29516261 -12.96360769 4.52179596 -8.5 1.0625 C-5.40289906 -0.2537679 -3.33544233 -0.42580115 0 0 Z " fill="#C37C69" transform="translate(143,18)"/>
<path d="M0 0 C3.97738337 3.59858495 4.52107442 7.02126814 4.92578125 12.29296875 C4.94432924 13.71603032 4.94773961 15.13935439 4.9375 16.5625 C4.93621094 17.30556396 4.93492187 18.04862793 4.93359375 18.81420898 C4.82677174 24.98384745 3.73509493 30.55967885 1.625 36.375 C-0.3125 36.0625 -0.3125 36.0625 -2.375 35.375 C-2.705 34.385 -3.035 33.395 -3.375 32.375 C-4.035 32.045 -4.695 31.715 -5.375 31.375 C-3.89 30.88 -3.89 30.88 -2.375 30.375 C-2.045 25.425 -1.715 20.475 -1.375 15.375 C-0.715 15.705 -0.055 16.035 0.625 16.375 C0.625 13.08276216 0.11981868 11.28989643 -1.375 8.375 C-5.79139708 5.62079176 -10.34578052 5.26065399 -15.375 6.375 C-19.32674244 8.97017414 -23.23018861 12.08537723 -25.375 16.375 C-26.365 16.045 -27.355 15.715 -28.375 15.375 C-27.6566002 8.81670507 -23.20426794 5.45043099 -18.375 1.375 C-12.59690567 -2.47304195 -6.24148051 -3.00515728 0 0 Z " fill="#4D473F" transform="translate(149.375,10.625)"/>
<path d="M0 0 C0.515625 0.495 1.03125 0.99 1.5625 1.5 C1.26350785 5.08790575 0.79263399 6.28166776 -1.875 8.8125 C-4.4375 10.5 -4.4375 10.5 -6.4375 10.5 C-6.1075 15.12 -5.7775 19.74 -5.4375 24.5 C-6.0975 24.83 -6.7575 25.16 -7.4375 25.5 C-8.39011487 20.73692563 -8.52083357 16.3333472 -8.4375 11.5 C-9.675 11.561875 -10.9125 11.62375 -12.1875 11.6875 C-15.21961302 11.70362826 -16.25998296 11.60651023 -18.9375 10 C-19.4325 9.505 -19.9275 9.01 -20.4375 8.5 C-20.18456737 5.08540955 -19.17801411 4.25204681 -16.625 1.8125 C-11.68489678 -1.77149645 -5.58178509 -3.43494467 0 0 Z " fill="#2E221A" transform="translate(125.4375,71.5)"/>
<path d="M0 0 C2.475 0.99 2.475 0.99 5 2 C5 2.66 5 3.32 5 4 C5.58394531 4.21785156 6.16789063 4.43570313 6.76953125 4.66015625 C9.72560575 6.43587175 10.89477465 8.5092523 12.6875 11.4375 C13.28949219 12.40558594 13.89148438 13.37367187 14.51171875 14.37109375 C16 17 16 17 17 20 C17.28875 19.030625 17.5775 18.06125 17.875 17.0625 C19 14 19 14 21 13 C21.04898438 13.75925781 21.09796875 14.51851562 21.1484375 15.30078125 C21.22320312 16.29464844 21.29796875 17.28851563 21.375 18.3125 C21.44460937 19.29863281 21.51421875 20.28476563 21.5859375 21.30078125 C21.83865472 24.21528433 21.83865472 24.21528433 24 27 C23.01 27.33 22.02 27.66 21 28 C20.67 27.67 20.34 27.34 20 27 C20.05220703 28.58941406 20.05220703 28.58941406 20.10546875 30.2109375 C20.13360399 31.59894252 20.16090443 32.98696463 20.1875 34.375 C20.21263672 35.07367188 20.23777344 35.77234375 20.26367188 36.4921875 C20.29296875 38.5234375 20.29296875 38.5234375 20 42 C19.01 42.66 18.02 43.32 17 44 C17.33 37.73 17.66 31.46 18 25 C17.34 25 16.68 25 16 25 C16 29.62 16 34.24 16 39 C15.67 39 15.34 39 15 39 C14.96261719 38.09378906 14.92523438 37.18757813 14.88671875 36.25390625 C14.29584043 25.30527851 12.73194433 17.86672869 6.3046875 8.9453125 C5 7 5 7 4 4 C1.99983534 2.79117904 1.99983534 2.79117904 0 2 C0 1.34 0 0.68 0 0 Z " fill="#221E1A" transform="translate(142,62)"/>
<path d="M0 0 C7.59798021 2.03517327 11.19203724 5.90053661 16 12 C17.216875 11.690625 18.43375 11.38125 19.6875 11.0625 C22.7782972 10.28842823 25.86734334 9.58737312 29 9 C28.01 10.485 28.01 10.485 27 12 C27.515625 11.835 28.03125 11.67 28.5625 11.5 C31.73363876 10.84951 34.77218334 10.9379266 38 11 C35.82276258 13.17723742 34.99514021 13.41899846 32.0859375 14.0703125 C31.32539062 14.24433594 30.56484375 14.41835938 29.78125 14.59765625 C28.9871875 14.77167969 28.193125 14.94570313 27.375 15.125 C26.57320312 15.30675781 25.77140625 15.48851562 24.9453125 15.67578125 C22.96500524 16.12370789 20.9826823 16.56270604 19 17 C19 17.66 19 18.32 19 19 C19.99 19 20.98 19 22 19 C21.34 20.32 20.68 21.64 20 23 C18.5 21.625 18.5 21.625 17 20 C17 19.34 17 18.68 17 18 C16.34 18 15.68 18 15 18 C13.4140625 16.390625 13.4140625 16.390625 11.625 14.25 C11.00238281 13.52039062 10.37976562 12.79078125 9.73828125 12.0390625 C9.16464844 11.36617187 8.59101562 10.69328125 8 10 C5.47934242 7.26328605 3.42765676 5.46899576 0 4 C0 2.68 0 1.36 0 0 Z " fill="#1C1815" transform="translate(43,18)"/>
<path d="M0 0 C3.38588732 1.21767691 6.18207402 2.71429695 8.16796875 5.8359375 C10.1230667 10.92102795 9.57696937 16.41333423 7.75 21.4375 C5.28962761 25.04018814 3.39587726 26.72415688 -0.9453125 27.58203125 C-1.99460937 27.65808594 -3.04390625 27.73414062 -4.125 27.8125 C-5.17945313 27.90144531 -6.23390625 27.99039063 -7.3203125 28.08203125 C-10 28 -10 28 -12 26 C-11.27554688 25.97421875 -10.55109375 25.9484375 -9.8046875 25.921875 C-3.65850466 25.56129894 0.29969803 25.08184118 5 21 C6.72320188 17.55359623 6.3723512 13.7757718 6 10 C4.37599816 6.36532921 3.33886956 5.22591304 0 3 C-3.3915846 2.4538974 -6.60763982 2.45895372 -10 3 C-13.34625024 5.52676039 -14.67977847 7.03933542 -16 11 C-16.068991 13.06145107 -16.08467727 15.12501401 -16.0625 17.1875 C-16.05347656 18.27417969 -16.04445312 19.36085938 -16.03515625 20.48046875 C-16.02355469 21.31191406 -16.01195312 22.14335938 -16 23 C-16.99 22.34 -17.98 21.68 -19 21 C-19.3984375 18.35546875 -19.3984375 18.35546875 -19.375 15.1875 C-19.38273437 14.14980469 -19.39046875 13.11210938 -19.3984375 12.04296875 C-18.78417602 7.35169729 -16.90188556 4.81389673 -13.4375 1.6875 C-8.81626235 -0.58110758 -5.05886087 -0.79918813 0 0 Z " fill="#1E1A15" transform="translate(61,96)"/>
<path d="M0 0 C1.37562854 1.28965176 2.70766393 2.62689293 4 4 C4 4.66 4 5.32 4 6 C2.68 5.67 1.36 5.34 0 5 C0.33 6.32 0.66 7.64 1 9 C0.01 9 -0.98 9 -2 9 C-2.66 10.65 -3.32 12.3 -4 14 C-4.99 14 -5.98 14 -7 14 C-7.33 15.32 -7.66 16.64 -8 18 C-8.66 18 -9.32 18 -10 18 C-10.33 18.99 -10.66 19.98 -11 21 C-11.66 21 -12.32 21 -13 21 C-13.33 21.99 -13.66 22.98 -14 24 C-14.99 23.67 -15.98 23.34 -17 23 C-17.33 21.02 -17.66 19.04 -18 17 C-17.01 16.67 -16.02 16.34 -15 16 C-14.67 15.01 -14.34 14.02 -14 13 C-13.34 13 -12.68 13 -12 13 C-12 12.34 -12 11.68 -12 11 C-10.3043832 9.80309402 -8.60619723 8.60952962 -6.890625 7.44140625 C-4.08261289 5.3005871 -2.14424137 2.79401148 0 0 Z " fill="#A3674F" transform="translate(53,44)"/>
<path d="M0 0 C0.33 0.66 0.66 1.32 1 2 C2.32 1.67 3.64 1.34 5 1 C5 2.32 5 3.64 5 5 C4.01 5.33 3.02 5.66 2 6 C0.77479736 9.00847418 0.77479736 9.00847418 0 12 C0.99 12 1.98 12 3 12 C3 12.66 3 13.32 3 14 C-0.87684087 15.19287411 -3.91621923 16 -8 16 C-8.05447047 14.58376784 -8.09300508 13.16691809 -8.125 11.75 C-8.14820313 10.96109375 -8.17140625 10.1721875 -8.1953125 9.359375 C-7.97755293 6.72883938 -7.48041976 5.18167122 -6 3 C-2.875 2.25 -2.875 2.25 0 2 C0 1.34 0 0.68 0 0 Z " fill="#956854" transform="translate(52,100)"/>
<path d="M0 0 C1.32 0.66 2.64 1.32 4 2 C4.05384521 4.29141286 4.09272087 6.58318188 4.125 8.875 C4.14820312 10.15117188 4.17140625 11.42734375 4.1953125 12.7421875 C4 16 4 16 2 18 C-0.625 17.625 -0.625 17.625 -3 17 C-4.86783046 11.51324804 -5.2358396 6.77807024 -5 1 C-4.01 1 -3.02 1 -2 1 C-1.67 2.98 -1.34 4.96 -1 7 C-0.67 4.69 -0.34 2.38 0 0 Z " fill="#C14626" transform="translate(114,110)"/>
<path d="M0 0 C11 0 11 0 13 1 C10.525 5.455 10.525 5.455 8 10 C7.34 10 6.68 10 6 10 C5.67 13.63 5.34 17.26 5 21 C2.70986347 17.5647952 2.82157027 16.014669 3 12 C0.525 11.01 0.525 11.01 -2 10 C-1.67 9.01 -1.34 8.02 -1 7 C-0.01 7.33 0.98 7.66 2 8 C2 7.34 2 6.68 2 6 C0.68 6 -0.64 6 -2 6 C-1.34 4.02 -0.68 2.04 0 0 Z " fill="#26221D" transform="translate(109,99)"/>
<path d="M0 0 C0.928125 0.103125 1.85625 0.20625 2.8125 0.3125 C2.4825 2.6225 2.1525 4.9325 1.8125 7.3125 C3.1325 6.3225 4.4525 5.3325 5.8125 4.3125 C5.4825 6.6225 5.1525 8.9325 4.8125 11.3125 C-0.29084017 13.217747 -4.65092706 14.73839023 -10.1875 14.3125 C-8.89216867 11.29444374 -7.55142194 8.30013854 -6.1875 5.3125 C-5.506875 3.7965625 -5.506875 3.7965625 -4.8125 2.25 C-3.1875 0.3125 -3.1875 0.3125 0 0 Z " fill="#191613" transform="translate(127.1875,97.6875)"/>
<path d="M0 0 C0.55945313 0.44472656 1.11890625 0.88945312 1.6953125 1.34765625 C4.01761198 3.01262689 6.29709525 4.21279447 8.875 5.4375 C12.83029013 7.38588996 16.53358701 9.26335816 20 12 C20 12.99 20 13.98 20 15 C17.9453125 15.7734375 17.9453125 15.7734375 15 16 C12.4368081 14.63412677 10.22566361 13.28778521 7.875 11.625 C3.19724017 8.3303358 3.19724017 8.3303358 -2 6 C-1.49396008 3.83125748 -1.00016187 2.00032373 0 0 Z " fill="#9D644E" transform="translate(127,26)"/>
<path d="M0 0 C0.33 1.65 0.66 3.3 1 5 C-1.34877419 7.50535913 -3.0911787 8.90564909 -6.55859375 9.265625 C-9.04963675 9.25149142 -11.51524028 9.17369194 -14 9 C-14.33 7.68 -14.66 6.36 -15 5 C-9.79981505 0.64308829 -6.77267164 -0.12778626 0 0 Z " fill="#D37F54" transform="translate(123,72)"/>
<path d="M0 0 C0.66 0 1.32 0 2 0 C6.69290461 10.55903536 5.14477593 19.10559767 2 30 C0.68 30 -0.64 30 -2 30 C-1.6925646 26.58285781 -1.37816912 23.16639063 -1.0625 19.75 C-0.97548828 18.78191406 -0.88847656 17.81382813 -0.79882812 16.81640625 C-0.71181641 15.88183594 -0.62480469 14.94726562 -0.53515625 13.984375 C-0.456604 13.12553711 -0.37805176 12.26669922 -0.29711914 11.38183594 C0 9 0 9 0.56079102 6.86035156 C1.14887061 4.36943076 0.61326906 2.45307625 0 0 Z " fill="#211C19" transform="translate(154,13)"/>
<path d="M0 0 C0.66 0 1.32 0 2 0 C1.25481426 4.74209108 -0.59163698 8.31002229 -2.84375 12.5 C-6.94544683 21.36853369 -5.27544612 32.59358488 -4 42 C-4.99 41.67 -5.98 41.34 -7 41 C-10.78268155 29.65195535 -8.98196351 17.54265041 -4.3125 6.625 C-3.6628125 5.325625 -3.6628125 5.325625 -3 4 C-2.34 4 -1.68 4 -1 4 C-0.67 2.68 -0.34 1.36 0 0 Z " fill="#1E1A17" transform="translate(89,69)"/>
<path d="M0 0 C0.66 0.33 1.32 0.66 2 1 C2 1.99 2 2.98 2 4 C2.87966431 4.18357056 2.87966431 4.18357056 3.77709961 4.37084961 C6.02505308 5.00709081 7.59931729 5.82333962 9.56640625 7.06640625 C10.21673828 7.46923828 10.86707031 7.87207031 11.53710938 8.28710938 C12.89192866 9.14024052 14.24609174 9.99441463 15.59960938 10.84960938 C19.50141746 13.34961145 19.50141746 13.34961145 24 14 C23.67 14.99 23.34 15.98 23 17 C18.77275721 16.4235578 15.96769096 14.94866803 12.375 12.6875 C3.75765442 7.52342894 -5.39179582 4.75115608 -15 2 C-15 1.67 -15 1.34 -15 1 C-9.80790596 0.78807779 -5.873261 1.4087311 -1 3 C-0.67 2.01 -0.34 1.02 0 0 Z " fill="#231E1A" transform="translate(123,28)"/>
<path d="M0 0 C0 0.66 0 1.32 0 2 C0.99 2.33 1.98 2.66 3 3 C-3.435 3.495 -3.435 3.495 -10 4 C-10 4.66 -10 5.32 -10 6 C-14.455 6.495 -14.455 6.495 -19 7 C-19 6.67 -19 6.34 -19 6 C-25.435 6.495 -25.435 6.495 -32 7 C-22.22239536 0.48159691 -11.56058886 -0.46973047 0 0 Z " fill="#2C2722" transform="translate(98,24)"/>
<path d="M0 0 C0.33 0.66 0.66 1.32 1 2 C-0.14808937 4.58432665 -1.51289239 7.01263732 -2.87109375 9.4921875 C-4.27365519 12.14954699 -4.27365519 12.14954699 -4 16 C-3.01 15.67 -2.02 15.34 -1 15 C-0.87625 15.804375 -0.7525 16.60875 -0.625 17.4375 C-0.41875 18.283125 -0.2125 19.12875 0 20 C0.66 20.33 1.32 20.66 2 21 C-2.05528411 20.75668295 -5.19156759 20.24371334 -8.5 17.875 C-11 15 -11 15 -10.875 11.1875 C-10.58625 10.135625 -10.2975 9.08375 -10 8 C-9.01 7.67 -8.02 7.34 -7 7 C-7 8.65 -7 10.3 -7 12 C-6.34 10.02 -5.68 8.04 -5 6 C-4.34 6 -3.68 6 -3 6 C-3 4.35 -3 2.7 -3 1 C-2.01 0.67 -1.02 0.34 0 0 Z " fill="#A96F5B" transform="translate(174,71)"/>
<path d="M0 0 C2.475 0.99 2.475 0.99 5 2 C5 2.66 5 3.32 5 4 C5.87398437 4.33064453 5.87398437 4.33064453 6.765625 4.66796875 C9.70130923 6.41808819 10.92785648 8.43522636 12.75 11.3125 C13.36359375 12.25738281 13.9771875 13.20226562 14.609375 14.17578125 C16.05173357 17.10506565 16.30409244 18.7894856 16 22 C15.34 22.33 14.68 22.66 14 23 C13.62875 22.030625 13.2575 21.06125 12.875 20.0625 C11.16799507 16.03298354 8.81399619 12.58608413 6.3046875 9.015625 C5 7 5 7 4 4 C1.99983534 2.79117904 1.99983534 2.79117904 0 2 C0 1.34 0 0.68 0 0 Z " fill="#171411" transform="translate(142,62)"/>
<path d="M0 0 C1.37562854 1.28965176 2.70766393 2.62689293 4 4 C4 4.66 4 5.32 4 6 C2.68 5.67 1.36 5.34 0 5 C0.33 6.32 0.66 7.64 1 9 C-0.65 8.67 -2.3 8.34 -4 8 C-4.66 9.65 -5.32 11.3 -6 13 C-6.99 12.67 -7.98 12.34 -9 12 C-9.99 12.33 -10.98 12.66 -12 13 C-12 12.34 -12 11.68 -12 11 C-10.3043832 9.80309402 -8.60619723 8.60952962 -6.890625 7.44140625 C-4.08261289 5.3005871 -2.14424137 2.79401148 0 0 Z M-14 13 C-13.34 13.33 -12.68 13.66 -12 14 C-12.99 14.66 -13.98 15.32 -15 16 C-14.67 15.01 -14.34 14.02 -14 13 Z M-17 16 C-16.34 16.33 -15.68 16.66 -15 17 C-15.99 17 -16.98 17 -18 17 C-17.67 16.67 -17.34 16.34 -17 16 Z " fill="#B06D56" transform="translate(53,44)"/>
<path d="M0 0 C2.875 1.875 2.875 1.875 5 4 C5 4.99 5 5.98 5 7 C3 6 1 5 -1 4 C-4.67329964 3.86642547 -7.49852959 3.8328432 -11 5 C-12.03316488 7.79172239 -12.03316488 7.79172239 -12.6875 11.0625 C-12.93886719 12.16722656 -13.19023438 13.27195312 -13.44921875 14.41015625 C-13.63097656 15.26480469 -13.81273437 16.11945312 -14 17 C-14.33 17 -14.66 17 -15 17 C-15.62572422 9.02201622 -15.62572422 9.02201622 -13.125 4.9375 C-11 3 -11 3 -9 3 C-8.67 2.01 -8.34 1.02 -8 0 C-5.0233079 -1.48834605 -3.18307201 -0.8113713 0 0 Z " fill="#261E17" transform="translate(46,32)"/>
<path d="M0 0 C7.59798021 2.03517327 11.19203724 5.90053661 16 12 C14 13 14 13 11.6875 12.375 C8.47672095 10.73227583 6.5071907 8.57147764 4 6 C1.83379456 4.70480005 1.83379456 4.70480005 0 4 C0 2.68 0 1.36 0 0 Z " fill="#0E0C09" transform="translate(43,18)"/>
<path d="M0 0 C0 5.23049669 -0.94476032 9.20444075 -3 14 C-4.32 13.67 -5.64 13.34 -7 13 C-6.67 11.35 -6.34 9.7 -6 8 C-6.33 8.33 -6.66 8.66 -7 9 C-7.99 9.495 -7.99 9.495 -9 10 C-6.54716981 0 -6.54716981 0 0 0 Z " fill="#B47561" transform="translate(66,106)"/>
<path d="M0 0 C0.33 0 0.66 0 1 0 C1.02578125 1.09957031 1.0515625 2.19914062 1.078125 3.33203125 C1.35704295 11.4069344 1.88990989 18.38036224 5.16015625 25.8984375 C6 28 6 28 6 31 C5.34 31 4.68 31 4 31 C4 29.35 4 27.7 4 26 C3.34 26 2.68 26 2 26 C1.67 26.99 1.34 27.98 1 29 C0.67 29 0.34 29 0 29 C-0.75406186 19.20879681 -1.22598899 9.78905055 0 0 Z " fill="#120F0C" transform="translate(22,39)"/>
<path d="M0 0 C0.66 0.33 1.32 0.66 2 1 C1.67 1.66 1.34 2.32 1 3 C2.32 3.33 3.64 3.66 5 4 C3.66666667 5.33333333 2.33333333 6.66666667 1 8 C0.76712992 9.68183948 0.58735834 11.3712416 0.4375 13.0625 C0.31181641 14.44115234 0.31181641 14.44115234 0.18359375 15.84765625 C0.12300781 16.55792969 0.06242187 17.26820312 0 18 C-2.29013653 14.5647952 -2.17842973 13.014669 -2 9 C-4.475 8.01 -4.475 8.01 -7 7 C-6.67 6.01 -6.34 5.02 -6 4 C-4.02 4.495 -4.02 4.495 -2 5 C-1.34 3.35 -0.68 1.7 0 0 Z " fill="#362418" transform="translate(114,102)"/>
<path d="M0 0 C1.32 0.66 2.64 1.32 4 2 C4 4.31 4 6.62 4 9 C1.625 9.625 1.625 9.625 -1 10 C-3 8 -3 8 -3.3125 5 C-3.209375 4.01 -3.10625 3.02 -3 2 C-2.01 1.34 -1.02 0.68 0 0 Z " fill="#0D0B09" transform="translate(63,75)"/>
<path d="M0 0 C0.33 0.99 0.66 1.98 1 3 C1.33 2.67 1.66 2.34 2 2 C2.66 1.67 3.32 1.34 4 1 C3.01 3.97 2.02 6.94 1 10 C1.99 10.33 2.98 10.66 4 11 C2 13 2 13 -0.3828125 13.1953125 C-1.28773437 13.17210938 -2.19265625 13.14890625 -3.125 13.125 C-4.49011719 13.09792969 -4.49011719 13.09792969 -5.8828125 13.0703125 C-6.58148438 13.04710938 -7.28015625 13.02390625 -8 13 C-6.68 12.67 -5.36 12.34 -4 12 C-3.8453125 10.700625 -3.8453125 10.700625 -3.6875 9.375 C-2.96601586 5.83316877 -1.72876739 3.15687958 0 0 Z " fill="#885F50" transform="translate(58,109)"/>
<path d="M0 0 C1.23593891 3.70781672 0.5678132 4.67510253 -0.9375 8.1875 C-1.31777344 9.08855469 -1.69804688 9.98960938 -2.08984375 10.91796875 C-2.39019531 11.60503906 -2.69054688 12.29210937 -3 13 C-6.71599191 13.20086443 -7.77208445 13.1519437 -11 11 C-10.4375 9.0625 -10.4375 9.0625 -9 7 C-5.375 6.25 -5.375 6.25 -2 6 C-1.34 4.02 -0.68 2.04 0 0 Z " fill="#BC7966" transform="translate(57,108)"/>
<path d="M0 0 C0.33 0 0.66 0 1 0 C1.02712066 1.43739513 1.04645067 2.87493863 1.0625 4.3125 C1.07410156 5.11300781 1.08570313 5.91351563 1.09765625 6.73828125 C1 9 1 9 0 12 C-0.22451458 14.22574335 -0.40782878 16.45581519 -0.5625 18.6875 C-0.64628906 19.86699219 -0.73007813 21.04648438 -0.81640625 22.26171875 C-0.87699219 23.16535156 -0.93757812 24.06898437 -1 25 C-3.83075926 22.16924074 -3.47520297 19.94414554 -3.75 16 C-3.84796875 14.741875 -3.9459375 13.48375 -4.046875 12.1875 C-4 9 -4 9 -2 7 C-1.28072705 4.68234271 -0.6090107 2.34904126 0 0 Z " fill="#080603" transform="translate(11,87)"/>
<path d="M0 0 C0.33 0.99 0.66 1.98 1 3 C-0.32 3.33 -1.64 3.66 -3 4 C-2.67 8.62 -2.34 13.24 -2 18 C-2.66 18.33 -3.32 18.66 -4 19 C-4.95261487 14.23692563 -5.08333357 9.8333472 -5 5 C-7.64 5 -10.28 5 -13 5 C-10.58112915 2.58112915 -9.25907651 2.50623037 -5.9375 1.9375 C-2.66916048 1.58972434 -2.66916048 1.58972434 0 0 Z " fill="#403022" transform="translate(122,78)"/>
<path d="M0 0 C1.76923828 0.01353516 1.76923828 0.01353516 3.57421875 0.02734375 C4.47785156 0.03894531 5.38148437 0.05054688 6.3125 0.0625 C6.3125 0.7225 6.3125 1.3825 6.3125 2.0625 C4.64960937 2.24425781 4.64960937 2.24425781 2.953125 2.4296875 C1.48953766 2.59856296 0.02599843 2.76785572 -1.4375 2.9375 C-2.16710937 3.01613281 -2.89671875 3.09476563 -3.6484375 3.17578125 C-6.64074938 3.52941811 -9.23897454 3.83823727 -11.953125 5.1953125 C-13.6875 6.0625 -13.6875 6.0625 -15.9375 5.6875 C-16.515 5.48125 -17.0925 5.275 -17.6875 5.0625 C-16.417947 4.41415346 -15.14680294 3.76892185 -13.875 3.125 C-13.16730469 2.76535156 -12.45960937 2.40570313 -11.73046875 2.03515625 C-7.65815057 0.0963279 -4.46814817 -0.04423909 0 0 Z " fill="#2A2622" transform="translate(118.6875,54.9375)"/>
<path d="M0 0 C0.33 0 0.66 0 1 0 C1.28971178 5.60109448 1.15976306 9.14750673 -2 14 C-5.2147253 17.01107755 -7.78262729 17.497758 -12.125 17.8125 C-13.17945313 17.90144531 -14.23390625 17.99039063 -15.3203125 18.08203125 C-18 18 -18 18 -20 16 C-19.27554688 15.97421875 -18.55109375 15.9484375 -17.8046875 15.921875 C-11.85060689 15.57256894 -7.565565 15.21436769 -3 11 C-1.06722203 7.50259224 -0.54914679 3.93555202 0 0 Z " fill="#1B1612" transform="translate(69,106)"/>
<path d="M0 0 C2 2 2 2 2.07519531 3.84765625 C1.99366211 4.57855469 1.91212891 5.30945312 1.828125 6.0625 C1.69664063 7.25746094 1.69664063 7.25746094 1.5625 8.4765625 C1.459375 9.30929688 1.35625 10.14203125 1.25 11 C1.11851563 12.24910156 1.11851563 12.24910156 0.984375 13.5234375 C0.26013049 19.73986951 0.26013049 19.73986951 -2 22 C-3.47670988 14.12421398 -2.3721176 7.59077631 0 0 Z " fill="#0A0705" transform="translate(22,31)"/>
<path d="M0 0 C5.86430529 1.43917584 11.68572445 2.99624529 17.5 4.625 C18.73363281 4.96917969 18.73363281 4.96917969 19.9921875 5.3203125 C21.99505845 5.87925323 23.99756762 6.43949008 26 7 C26 7.33 26 7.66 26 8 C17.11353776 7.32055218 9.24032143 5.40978818 1 2 C0.67 1.34 0.34 0.68 0 0 Z " fill="#0A0806" transform="translate(54,174)"/>
<path d="M0 0 C0.8353125 0.680625 0.8353125 0.680625 1.6875 1.375 C4.05313439 3.03733768 6.29015658 4.02144543 9 5 C8.34 6.32 7.68 7.64 7 9 C4.03 8.01 1.06 7.02 -2 6 C-1 2 -1 2 0 0 Z " fill="#A86952" transform="translate(127,26)"/>
<path d="M0 0 C0.99 0.66 1.98 1.32 3 2 C2.01 3.32 1.02 4.64 0 6 C0.639375 6.226875 1.27875 6.45375 1.9375 6.6875 C4 8 4 8 4.75 10.625 C4.8325 11.40875 4.915 12.1925 5 13 C4.01 13 3.02 13 2 13 C1.67 11.35 1.34 9.7 1 8 C-1.05270463 9.84188612 -1.05270463 9.84188612 -2 12 C-3 11 -3 11 -3.25 8.25 C-2.97434074 4.66642963 -2.04806115 2.90141996 0 0 Z " fill="#BD7A68" transform="translate(172,78)"/>
<path d="M0 0 C2.31632275 1.28518553 4.62796942 2.57771266 6.9375 3.875 C7.59685547 4.23980469 8.25621094 4.60460937 8.93554688 4.98046875 C13.88671875 7.7734375 13.88671875 7.7734375 15 10 C12.36 9.67 9.72 9.34 7 9 C7 8.34 7 7.68 7 7 C5.8553125 6.9071875 5.8553125 6.9071875 4.6875 6.8125 C2 6 2 6 0.1875 3.4375 C-0.204375 2.633125 -0.59625 1.82875 -1 1 C-0.67 0.67 -0.34 0.34 0 0 Z " fill="#0B0A08" transform="translate(38,164)"/>
<path d="M0 0 C0 1.32 0 2.64 0 4 C-0.99 4 -1.98 4 -3 4 C-3 6.31 -3 8.62 -3 11 C-2.34 11.33 -1.68 11.66 -1 12 C-2.32 12 -3.64 12 -5 12 C-7 9 -7 9 -6.8125 6 C-5.63548137 1.65408505 -4.61328473 0 0 0 Z " fill="#151310" transform="translate(102,97)"/>
<path d="M0 0 C2 2 2 2 2.125 4.625 C2.08375 5.40875 2.0425 6.1925 2 7 C1.67 6.34 1.34 5.68 1 5 C-1.02463255 4.34786708 -1.02463255 4.34786708 -3 4 C-3 3.34 -3 2.68 -3 2 C-5.97 3.32 -8.94 4.64 -12 6 C-12 5.01 -12 4.02 -12 3 C-8.11807772 -0.17611823 -4.91419022 -0.46360285 0 0 Z " fill="#24211C" transform="translate(142,89)"/>
<path d="M0 0 C-0.86882812 0.49628906 -1.73765625 0.99257813 -2.6328125 1.50390625 C-9.115029 5.29434693 -14.50852171 8.84025835 -19 15 C-19.33 14.34 -19.66 13.68 -20 13 C-7.27927193 -2.10357339 -7.27927193 -2.10357339 0 0 Z " fill="#C2B9A7" transform="translate(109,61)"/>
<path d="M0 0 C0.33 0 0.66 0 1 0 C1.144375 0.78375 1.28875 1.5675 1.4375 2.375 C1.87798925 4.96421018 1.87798925 4.96421018 3 7 C2.39239518 9.3494053 1.72870472 11.68529088 1 14 C-0.32 14 -1.64 14 -3 14 C-2.69249629 11.85344499 -2.3788634 9.70776715 -2.0625 7.5625 C-1.88847656 6.36753906 -1.71445313 5.17257813 -1.53515625 3.94140625 C-1 1 -1 1 0 0 Z " fill="#181411" transform="translate(155,29)"/>
<path d="M0 0 C9.91475927 -0.78137332 9.91475927 -0.78137332 14.125 2.25 C16.75694452 6.1101853 17.1858894 7.61910728 16.5625 12.25 C16.376875 13.1575 16.19125 14.065 16 15 C15.67 15 15.34 15 15 15 C14.91363281 14.39671875 14.82726562 13.7934375 14.73828125 13.171875 C14.04153404 9.20872571 13.52115059 6.61311834 10.875 3.5 C7.13537541 1.54889152 4.19780525 1.28459697 0 1 C0 0.67 0 0.34 0 0 Z " fill="#2D2720" transform="translate(53,97)"/>
<path d="M0 0 C2.0625 0.4375 2.0625 0.4375 4 1 C4.625 3.3125 4.625 3.3125 5 6 C4.01 7.485 4.01 7.485 3 9 C1.68 8.34 0.36 7.68 -1 7 C-1.04254356 5.00045254 -1.04080783 2.99958364 -1 1 C-0.67 0.67 -0.34 0.34 0 0 Z " fill="#0B0908" transform="translate(148,54)"/>
<path d="M0 0 C0.66 0.33 1.32 0.66 2 1 C1.34 1.66 0.68 2.32 0 3 C0.515625 2.835 1.03125 2.67 1.5625 2.5 C4.73363876 1.84951 7.77218334 1.9379266 11 2 C7.41624224 5.58375776 1.86499859 5.92387761 -3.0625 6.125 C-3.701875 6.08375 -4.34125 6.0425 -5 6 C-5 4.68 -5 3.36 -5 2 C-2.625 0.9375 -2.625 0.9375 0 0 Z " fill="#171410" transform="translate(70,27)"/>
<path d="M0 0 C1.98 1.65 3.96 3.3 6 5 C5.67 5.66 5.34 6.32 5 7 C5.08651631 8.54613014 5.24002636 10.08909387 5.4375 11.625 C5.53933594 12.44226562 5.64117187 13.25953125 5.74609375 14.1015625 C5.82988281 14.72804688 5.91367188 15.35453125 6 16 C4 15 4 15 3.21875 13.07421875 C2.9815625 12.28660156 2.744375 11.49898437 2.5 10.6875 C1.75831661 8.24881276 1.04521447 6.08477714 -0.15625 3.83203125 C-0.4346875 3.22746094 -0.713125 2.62289063 -1 2 C-0.67 1.34 -0.34 0.68 0 0 Z " fill="#0A0907" transform="translate(150,7)"/>
<path d="M0 0 C-1.2394257 5.16427376 -2.78988821 8.75436828 -6 13 C-6.33 13 -6.66 13 -7 13 C-6.19444444 0 -6.19444444 0 0 0 Z " fill="#281109" transform="translate(170,131)"/>
<path d="M0 0 C2.66301861 3.99452792 2.84758428 7.30125605 2 12 C-0.5 15.0625 -0.5 15.0625 -3 17 C-2.53442333 14.60560569 -2.06183198 12.2335875 -1.4375 9.875 C-0.88638519 7.8339736 -0.88638519 7.8339736 -1 5 C-0.68911632 3.32900023 -0.35919668 1.66128463 0 0 Z " fill="#8F634E" transform="translate(66,103)"/>
<path d="M0 0 C0.66 0 1.32 0 2 0 C2.02712351 2.39591038 2.0468982 4.79150957 2.0625 7.1875 C2.07087891 7.86103516 2.07925781 8.53457031 2.08789062 9.22851562 C2.10606538 12.95434131 1.89299392 16.3788042 1 20 C0.34 20 -0.32 20 -1 20 C-0.67 13.4 -0.34 6.8 0 0 Z " fill="#0C0A08" transform="translate(158,87)"/>
<path d="M0 0 C0.66 0.66 1.32 1.32 2 2 C1.67 2.99 1.34 3.98 1 5 C1.66 5 2.32 5 3 5 C3 5.66 3 6.32 3 7 C0.93636888 6.54678672 -1.12586507 6.08720894 -3.1875 5.625 C-4.33605469 5.36976562 -5.48460938 5.11453125 -6.66796875 4.8515625 C-9.58807348 4.10527548 -12.23953389 3.19568212 -15 2 C-15 1.67 -15 1.34 -15 1 C-9.80790596 0.78807779 -5.873261 1.4087311 -1 3 C-0.67 2.01 -0.34 1.02 0 0 Z " fill="#110F0D" transform="translate(123,28)"/>
<path d="M0 0 C0.45375 0.474375 0.9075 0.94875 1.375 1.4375 C2.93258204 3.09027808 2.93258204 3.09027808 5 4 C5 4.66 5 5.32 5 6 C4.01 6 3.02 6 2 6 C1.67 6.66 1.34 7.32 1 8 C1.99 8.33 2.98 8.66 4 9 C3.67 9.66 3.34 10.32 3 11 C1.35 11 -0.3 11 -2 11 C-1.79375 10.4225 -1.5875 9.845 -1.375 9.25 C-0.91338739 6.48032433 -1.57055055 5.35438733 -3 3 C-2.01 2.01 -1.02 1.02 0 0 Z " fill="#161310" transform="translate(106,101)"/>
<path d="M0 0 C0.66 0.99 1.32 1.98 2 3 C1.38511719 2.96519531 0.77023438 2.93039063 0.13671875 2.89453125 C-1.07564453 2.85392578 -1.07564453 2.85392578 -2.3125 2.8125 C-3.11300781 2.77769531 -3.91351563 2.74289063 -4.73828125 2.70703125 C-7.51627459 3.06687495 -8.29427215 3.83241353 -10 6 C-10.33 6.66 -10.66 7.32 -11 8 C-11.66 8 -12.32 8 -13 8 C-13.33 9.65 -13.66 11.3 -14 13 C-14.75 11.375 -14.75 11.375 -15 9 C-11.56453846 2.52547632 -7.55863043 -1.00781739 0 0 Z " fill="#D0BBA6" transform="translate(178,68)"/>
<path d="M0 0 C1 3 1 3 0 6 C1.32 6 2.64 6 4 6 C3.8125 8.375 3.8125 8.375 3 11 C0.4375 12.3125 0.4375 12.3125 -2 13 C-2.05447047 11.58376784 -2.09300508 10.16691809 -2.125 8.75 C-2.14820313 7.96109375 -2.17140625 7.1721875 -2.1953125 6.359375 C-1.9828378 3.79268059 -1.28654105 2.2083933 0 0 Z " fill="#A47863" transform="translate(46,103)"/>
<path d="M0 0 C5.61 0.33 11.22 0.66 17 1 C17 1.33 17 1.66 17 2 C16.40832031 2.02578125 15.81664063 2.0515625 15.20703125 2.078125 C9.9279987 2.45704414 6.89363339 3.10636661 3 7 C1.9375 5.125 1.9375 5.125 1 3 C1.33 2.34 1.66 1.68 2 1 C1.34 0.67 0.68 0.34 0 0 Z " fill="#231F1B" transform="translate(100,96)"/>
<path d="M0 0 C4.24846075 0.47205119 6.26819288 2.88877522 9 6 C9 6.66 9 7.32 9 8 C6.1875 8.25 6.1875 8.25 3 8 C1.125 6.25 1.125 6.25 0 4 C0 2.68 0 1.36 0 0 Z " fill="#0A0807" transform="translate(21,148)"/>
<path d="M0 0 C-0.33 0.99 -0.66 1.98 -1 3 C-4.26202163 4.30480865 -7.57956185 5.21066812 -11 6 C-11.33 5.01 -11.66 4.02 -12 3 C-8.2391768 -0.7608232 -5.0273023 -0.25136512 0 0 Z " fill="#0B0907" transform="translate(41,18)"/>
<path d="M0 0 C1.75070517 0.11470137 3.50057536 0.24219028 5.25 0.375 C6.22453125 0.44460937 7.1990625 0.51421875 8.203125 0.5859375 C10.89633189 0.98465249 12.66963279 1.63507063 15 3 C10.23692563 3.95261487 5.8333472 4.08333357 1 4 C0.67 2.68 0.34 1.36 0 0 Z " fill="#221E1B" transform="translate(98,24)"/>
<path d="M0 0 C0.33 0.66 0.66 1.32 1 2 C0.10333658 4.24310013 -0.89146683 6.44754321 -1.9375 8.625 C-2.50339844 9.81351563 -3.06929687 11.00203125 -3.65234375 12.2265625 C-4.09707031 13.14179687 -4.54179687 14.05703125 -5 15 C-5.33 15 -5.66 15 -6 15 C-5.67 12.03 -5.34 9.06 -5 6 C-4.34 6 -3.68 6 -3 6 C-3 4.35 -3 2.7 -3 1 C-2.01 0.67 -1.02 0.34 0 0 Z " fill="#A8715E" transform="translate(174,71)"/>
<path d="M0 0 C1.37562854 1.28965176 2.70766393 2.62689293 4 4 C4 4.66 4 5.32 4 6 C2.68 5.67 1.36 5.34 0 5 C0.33 6.32 0.66 7.64 1 9 C-0.32 8.67 -1.64 8.34 -3 8 C-2.37240135 5.07120629 -1.41377341 2.63904371 0 0 Z " fill="#A56851" transform="translate(53,44)"/>
<path d="M0 0 C0.66 0.33 1.32 0.66 2 1 C2 5.95 2 10.9 2 16 C-2 17 -2 17 -4 16 C-3.01 15.67 -2.02 15.34 -1 15 C-0.67 10.05 -0.34 5.1 0 0 Z " fill="#55402D" transform="translate(148,26)"/>
<path d="M0 0 C1.33332095 2.6666419 0.67102033 4.16680303 0 7 C-2.31 7.66 -4.62 8.32 -7 9 C-6.67 7.02 -6.34 5.04 -6 3 C-4.68 3 -3.36 3 -2 3 C-1.34 2.01 -0.68 1.02 0 0 Z " fill="#282420" transform="translate(132,102)"/>
<path d="M0 0 C0.99 0.33 1.98 0.66 3 1 C2.125 4.875 2.125 4.875 1 6 C-0.66617115 6.04063832 -2.33388095 6.042721 -4 6 C-4 5.01 -4 4.02 -4 3 C-2.1875 1.25 -2.1875 1.25 0 0 Z " fill="#E16933" transform="translate(113,75)"/>
<path d="M0 0 C1.39195915 4.17587745 -0.17676781 6.13474776 -2 10 C-3.65 10 -5.3 10 -7 10 C-6.01 7.36 -5.02 4.72 -4 2 C-3.67 3.32 -3.34 4.64 -3 6 C-2.01 4.02 -1.02 2.04 0 0 Z " fill="#26231E" transform="translate(126,99)"/>
<path d="M0 0 C2 2 2 2 2.1953125 5.0390625 C2.17210938 6.22242187 2.14890625 7.40578125 2.125 8.625 C2.10695313 9.81351563 2.08890625 11.00203125 2.0703125 12.2265625 C2.04710938 13.14179687 2.02390625 14.05703125 2 15 C1.01 15 0.02 15 -1 15 C-0.67 10.05 -0.34 5.1 0 0 Z " fill="#3F291A" transform="translate(118,112)"/>
<path d="M0 0 C1 2 1 2 0.3125 4.75 C-1.07926349 8.1962715 -2.84459722 10.9824361 -5 14 C-6 12 -6 12 -5.29296875 9.6875 C-4.92816406 8.800625 -4.56335938 7.91375 -4.1875 7 C-3.83042969 6.113125 -3.47335938 5.22625 -3.10546875 4.3125 C-2 2 -2 2 0 0 Z " fill="#676055" transform="translate(24,66)"/>
<path d="M0 0 C1.32 0.66 2.64 1.32 4 2 C2.7934375 2.61875 2.7934375 2.61875 1.5625 3.25 C-1.14109718 4.73452331 -1.14109718 4.73452331 -1.8125 7.1875 C-1.9053125 8.0846875 -1.9053125 8.0846875 -2 9 C-2.99 9 -3.98 9 -5 9 C-4.67 7.02 -4.34 5.04 -4 3 C-2.68 2.67 -1.36 2.34 0 2 C0 1.34 0 0.68 0 0 Z " fill="#B87662" transform="translate(57,103)"/>
<path d="M0 0 C1.32 0.33 2.64 0.66 4 1 C3.67 2.65 3.34 4.3 3 6 C1.68 6.33 0.36 6.66 -1 7 C-1.33 6.01 -1.66 5.02 -2 4 C-1.34 4 -0.68 4 0 4 C0 2.68 0 1.36 0 0 Z " fill="#E56A33" transform="translate(120,72)"/>
<path d="M0 0 C3.39417765 3.12621626 5.6062718 5.56541027 7 10 C4.13302508 8.71480435 2.02392288 7.42870746 0 5 C0 4.34 0 3.68 0 3 C-0.66 2.67 -1.32 2.34 -2 2 C-1.34 2 -0.68 2 0 2 C0 1.34 0 0.68 0 0 Z " fill="#3B2F23" transform="translate(51,37)"/>
<path d="M0 0 C3.99357628 0.5705109 6.57784475 1.92869551 10 4 C10.99 4 11.98 4 13 4 C12.67 4.99 12.34 5.98 12 7 C7.0682659 6.55166054 3.6807076 4.13973905 0 1 C0 0.67 0 0.34 0 0 Z " fill="#191512" transform="translate(134,38)"/>
<path d="M0 0 C-1.5277867 3.43752007 -3.50181056 6.18953688 -6 9 C-6.66 9 -7.32 9 -8 9 C-7.70100785 5.41209425 -7.23013399 4.21833224 -4.5625 1.6875 C-2 0 -2 0 0 0 Z " fill="#19140F" transform="translate(133,19)"/>
<path d="M0 0 C1.98 0 3.96 0 6 0 C7.125 3.75 7.125 3.75 6 6 C5.01 5.34 4.02 4.68 3 4 C1.0103005 3.60986284 -0.99019869 3.26797351 -3 3 C-2.01 2.67 -1.02 2.34 0 2 C0 1.34 0 0.68 0 0 Z " fill="#1A1813" transform="translate(143,6)"/>
<path d="M0 0 C1.32 0 2.64 0 4 0 C4 0.66 4 1.32 4 2 C4.66 2.33 5.32 2.66 6 3 C1.545 4.485 1.545 4.485 -3 6 C-2 2 -2 2 0 0 Z " fill="#080706" transform="translate(122,173)"/>
<path d="M0 0 C0.66 0 1.32 0 2 0 C2 1.32 2 2.64 2 4 C3.32 4 4.64 4 6 4 C6.33 5.32 6.66 6.64 7 8 C6.34 8 5.68 8 5 8 C4.67 8.99 4.34 9.98 4 11 C3.32880451 9.5437455 2.66318193 8.08492133 2 6.625 C1.62875 5.81289062 1.2575 5.00078125 0.875 4.1640625 C0 2 0 2 0 0 Z " fill="#231C09" transform="translate(11,131)"/>
<path d="M0 0 C2 3 2 3 4 6 C7.08365871 6.2502157 7.08365871 6.2502157 10 6 C9.67 6.99 9.34 7.98 9 9 C6.1875 9.25 6.1875 9.25 3 9 C0.532661 6.7793949 0.03847554 5.56430797 -0.1875 2.25 C-0.125625 1.5075 -0.06375 0.765 0 0 Z " fill="#2F2219" transform="translate(108,121)"/>
<path d="M0 0 C0.99 0 1.98 0 3 0 C6 5.625 6 5.625 6 9 C5.34 9 4.68 9 4 9 C4 7.35 4 5.7 4 4 C3.34 4 2.68 4 2 4 C1.67 4.99 1.34 5.98 1 7 C0.67 7 0.34 7 0 7 C0 4.69 0 2.38 0 0 Z " fill="#1C1815" transform="translate(22,61)"/>
<path d="M0 0 C0 1.98 0 3.96 0 6 C0.99 5.67 1.98 5.34 3 5 C3 5.66 3 6.32 3 7 C-0.71599191 7.20086443 -1.77208445 7.1519437 -5 5 C-2.74193548 0 -2.74193548 0 0 0 Z " fill="#AD715C" transform="translate(51,114)"/>
<path d="M0 0 C1.21236328 0.02707031 1.21236328 0.02707031 2.44921875 0.0546875 C3.37154297 0.08949219 3.37154297 0.08949219 4.3125 0.125 C0.5625 2.125 0.5625 2.125 -1.6875 2.125 C-2.0175 2.785 -2.3475 3.445 -2.6875 4.125 C-5.75 4.75 -5.75 4.75 -8.6875 5.125 C-7.09467308 0.34651924 -4.63157396 -0.13424852 0 0 Z " fill="#C1A893" transform="translate(55.6875,97.875)"/>
<path d="M0 0 C0.33 0 0.66 0 1 0 C1.33 4.62 1.66 9.24 2 14 C1.01 14.495 1.01 14.495 0 15 C-0.19517554 13.06325815 -0.38087873 11.12555991 -0.5625 9.1875 C-0.66691406 8.10855469 -0.77132812 7.02960938 -0.87890625 5.91796875 C-1 3 -1 3 0 0 Z " fill="#39342E" transform="translate(118,82)"/>
<path d="M0 0 C1.75254122 5.25762367 -0.18893249 9.92901098 -2 15 C-2.33 15 -2.66 15 -3 15 C-3.36263859 9.1977825 -2.25684543 5.36000789 0 0 Z " fill="#4D473F" transform="translate(18,75)"/>
<path d="M0 0 C0.33 0 0.66 0 1 0 C1 1.98 1 3.96 1 6 C1.66 6 2.32 6 3 6 C3.33 7.98 3.66 9.96 4 12 C1 11 1 11 -1 9 C-0.9765625 6.8359375 -0.9765625 6.8359375 -0.625 4.375 C-0.51414063 3.55773437 -0.40328125 2.74046875 -0.2890625 1.8984375 C-0.19367188 1.27195312 -0.09828125 0.64546875 0 0 Z " fill="#25211E" transform="translate(156,101)"/>
<path d="M0 0 C0.99 0.33 1.98 0.66 3 1 C3 2.65 3 4.3 3 6 C2.01 6 1.02 6 0 6 C0 5.01 0 4.02 0 3 C-0.66 3 -1.32 3 -2 3 C-2 3.66 -2 4.32 -2 5 C-2.66 5 -3.32 5 -4 5 C-2.25 1.125 -2.25 1.125 0 0 Z " fill="#0A0806" transform="translate(136,91)"/>
<path d="M0 0 C0.66 0 1.32 0 2 0 C2.66 1.98 3.32 3.96 4 6 C3.01 6 2.02 6 1 6 C1 6.99 1 7.98 1 9 C0.01 8.67 -0.98 8.34 -2 8 C-2 7.01 -2 6.02 -2 5 C-1.01 5 -0.02 5 1 5 C0.67 3.35 0.34 1.7 0 0 Z " fill="#2F2820" transform="translate(53,49)"/>
<path d="M0 0 C0.66 0 1.32 0 2 0 C3.1577506 3.47325181 3.06866652 6.36067448 3 10 C1 9 1 9 -0.1875 6.6875 C-1.03624754 3.88010429 -0.99928333 2.698065 0 0 Z " fill="#5C5147" transform="translate(113,38)"/>
<path d="M0 0 C-0.33 0.66 -0.66 1.32 -1 2 C-4.01490557 3.00496852 -6.04181692 3.10335303 -9.1875 3.0625 C-10.53908203 3.04896484 -10.53908203 3.04896484 -11.91796875 3.03515625 C-12.60503906 3.02355469 -13.29210937 3.01195312 -14 3 C-9.31017775 0.56089583 -5.28875777 -0.15110736 0 0 Z " fill="#1C1A16" transform="translate(113,180)"/>
<path d="M0 0 C1.1446875 0.2475 1.1446875 0.2475 2.3125 0.5 C5.03596236 1.09145396 5.03596236 1.09145396 8 1 C6.75 3.5 6.75 3.5 5 6 C3.68 6 2.36 6 1 6 C1.33 4.35 1.66 2.7 2 1 C1.34 0.67 0.68 0.34 0 0 Z " fill="#2E2924" transform="translate(114,99)"/>
<path d="M0 0 C0.99 0 1.98 0 3 0 C6 6.625 6 6.625 6 10 C5.34 10 4.68 10 4 10 C3.34 7.69 2.68 5.38 2 3 C1.34 3 0.68 3 0 3 C0 2.01 0 1.02 0 0 Z " fill="#25221D" transform="translate(84,112)"/>
<path d="M0 0 C0.99 0 1.98 0 3 0 C3 0.66 3 1.32 3 2 C3.66 2 4.32 2 5 2 C5 3.65 5 5.3 5 7 C3.68 6.67 2.36 6.34 1 6 C0.67 4.02 0.34 2.04 0 0 Z " fill="#14110E" transform="translate(138,92)"/>
<path d="M0 0 C0.66 0 1.32 0 2 0 C1.49701212 4.40114397 -0.08772731 6.71195019 -3 10 C-4 7 -4 7 -3 4 C-2.34 4 -1.68 4 -1 4 C-0.67 2.68 -0.34 1.36 0 0 Z " fill="#2B2722" transform="translate(89,69)"/>
<path d="M0 0 C2.86697492 1.28519565 4.97607712 2.57129254 7 5 C7 5.66 7 6.32 7 7 C5.0625 6.6875 5.0625 6.6875 3 6 C2.67 5.01 2.34 4.02 2 3 C1.34 3 0.68 3 0 3 C0 2.01 0 1.02 0 0 Z " fill="#5D5248" transform="translate(78,57)"/>
<path d="M0 0 C0.33 0 0.66 0 1 0 C1.29341888 5.67276511 1.00559652 8.99067246 -2 14 C-2.66 14 -3.32 14 -4 14 C-3.566875 13.0409375 -3.566875 13.0409375 -3.125 12.0625 C-1.6752275 8.11589708 -0.84221938 4.1125393 0 0 Z " fill="#13100D" transform="translate(69,106)"/>
<path d="M0 0 C0.33 0 0.66 0 1 0 C1.08082094 1.95766281 1.13910778 3.91626728 1.1875 5.875 C1.23970703 7.51082031 1.23970703 7.51082031 1.29296875 9.1796875 C1.19628906 10.11039063 1.09960938 11.04109375 1 12 C0.01 12.66 -0.98 13.32 -2 14 C-1.33333333 9.33333333 -0.66666667 4.66666667 0 0 Z " fill="#2C2A26" transform="translate(161,92)"/>
<path d="M0 0 C-0.6875 1.9375 -0.6875 1.9375 -2 4 C-4.5 4.875 -4.5 4.875 -7 5 C-7.66 4.34 -8.32 3.68 -9 3 C-7.35 2.67 -5.7 2.34 -4 2 C-4.66 1.34 -5.32 0.68 -6 0 C-2.25 -1.125 -2.25 -1.125 0 0 Z " fill="#13110E" transform="translate(120,176)"/>
<path d="M0 0 C0.66 0 1.32 0 2 0 C1.745504 1.48206495 1.47088238 2.96068615 1.1875 4.4375 C1.03667969 5.26121094 0.88585937 6.08492187 0.73046875 6.93359375 C0.48941406 7.61550781 0.24835938 8.29742187 0 9 C-0.99 9.33 -1.98 9.66 -3 10 C-2.01 6.7 -1.02 3.4 0 0 Z " fill="#FF4105" transform="translate(179,135)"/>
<path d="M0 0 C0.66 0 1.32 0 2 0 C2.12375 0.804375 2.2475 1.60875 2.375 2.4375 C2.684375 3.7059375 2.684375 3.7059375 3 5 C3.66 5.33 4.32 5.66 5 6 C2.69 5.67 0.38 5.34 -2 5 C-1.34 4.67 -0.68 4.34 0 4 C-0.33 3.01 -0.66 2.02 -1 1 C-0.67 0.67 -0.34 0.34 0 0 Z " fill="#885C4A" transform="translate(171,86)"/>
<path d="M0 0 C0.99 0.33 1.98 0.66 3 1 C3.33 3.31 3.66 5.62 4 8 C3.01 8.495 3.01 8.495 2 9 C1.34 6.03 0.68 3.06 0 0 Z " fill="#100E0C" transform="translate(154,76)"/>
<path d="M0 0 C0.66 0 1.32 0 2 0 C3.5625 2.8125 3.5625 2.8125 5 6 C4.67 6.99 4.34 7.98 4 9 C0 3.375 0 3.375 0 0 Z " fill="#574E44" transform="translate(100,44)"/>
<path d="M0 0 C2.72869407 0.03287583 5.2966618 0.56397771 8 1 C8 1.33 8 1.66 8 2 C6.88625 2.309375 5.7725 2.61875 4.625 2.9375 C1.2054845 3.82326483 1.2054845 3.82326483 -1 5 C-1.33 4.01 -1.66 3.02 -2 2 C-1.34 1.34 -0.68 0.68 0 0 Z " fill="#2F221A" transform="translate(134,16)"/>
<path d="M0 0 C0.66 0 1.32 0 2 0 C0.375 6.75 0.375 6.75 -3 9 C-2.44271087 5.65626525 -1.64826111 2.96687001 0 0 Z " fill="#5A5046" transform="translate(106,147)"/>
<path d="M0 0 C0.66 0 1.32 0 2 0 C0.90931332 3.77545388 0.0916909 6.47043472 -3 9 C-2.5020163 5.26512223 -2.12508244 3.18762365 0 0 Z " fill="#5E5248" transform="translate(91,146)"/>
<path d="M0 0 C1.32 1.32 2.64 2.64 4 4 C2.02 4.99 2.02 4.99 0 6 C-1.5 4.625 -1.5 4.625 -3 3 C-3 2.34 -3 1.68 -3 1 C-2.01 0.67 -1.02 0.34 0 0 Z " fill="#7E5F4D" transform="translate(62,99)"/>
<path d="M0 0 C2 2 2 2 2.265625 3.875 C2.26046875 4.57625 2.2553125 5.2775 2.25 6 C2.25515625 6.70125 2.2603125 7.4025 2.265625 8.125 C2 10 2 10 0 12 C0.04125 10.9275 0.0825 9.855 0.125 8.75 C0.0114175 5.34252515 -0.21273364 3.79260369 -2 1 C-1.34 0.67 -0.68 0.34 0 0 Z " fill="#28231D" transform="translate(149,22)"/>
<path d="M0 0 C0.66 0 1.32 0 2 0 C2 3.3 2 6.6 2 10 C1.67 9.01 1.34 8.02 1 7 C0.34 7 -0.32 7 -1 7 C-0.67 4.69 -0.34 2.38 0 0 Z " fill="#161411" transform="translate(157,21)"/>
<path d="M0 0 C0.99 0 1.98 0 3 0 C1.75023244 3.65316671 1.32901247 4.78065836 -2 7 C-1.125 2.25 -1.125 2.25 0 0 Z " fill="#815A4A" transform="translate(65,113)"/>
<path d="M0 0 C0.66 0 1.32 0 2 0 C2 2.64 2 5.28 2 8 C1.01 7.34 0.02 6.68 -1 6 C-1.25 3.4375 -1.25 3.4375 -1 1 C-0.67 0.67 -0.34 0.34 0 0 Z " fill="#0B0706" transform="translate(174,103)"/>
<path d="M0 0 C0.99 0.33 1.98 0.66 3 1 C3.73046875 3.06640625 3.73046875 3.06640625 4.1875 5.5625 C4.34605469 6.38878906 4.50460938 7.21507813 4.66796875 8.06640625 C4.77753906 8.70449219 4.88710938 9.34257813 5 10 C2.08772731 6.71195019 0.50298788 4.40114397 0 0 Z " fill="#2B221B" transform="translate(32,60)"/>
<path d="M0 0 C1.32 0.33 2.64 0.66 4 1 C4 1.99 4 2.98 4 4 C4.66 4 5.32 4 6 4 C5.67 4.99 5.34 5.98 5 7 C3.29115995 5.37660195 1.62553283 3.70680947 0 2 C0 1.34 0 0.68 0 0 Z " fill="#61554B" transform="translate(87,48)"/>
<path d="M0 0 C-0.33 1.65 -0.66 3.3 -1 5 C-2.32 4.67 -3.64 4.34 -5 4 C-5 3.01 -5 2.02 -5 1 C-3 0 -3 0 0 0 Z " fill="#2C2926" transform="translate(152,42)"/>
<path d="M0 0 C2.31 0 4.62 0 7 0 C7 0.66 7 1.32 7 2 C7.99 2.33 8.98 2.66 10 3 C6.7 2.67 3.4 2.34 0 2 C0 1.34 0 0.68 0 0 Z " fill="#3B3531" transform="translate(91,24)"/>
<path d="M0 0 C0.66 0 1.32 0 2 0 C1.71848913 1.31471568 1.42446661 2.62675767 1.125 3.9375 C0.96257812 4.66839844 0.80015625 5.39929688 0.6328125 6.15234375 C0 8 0 8 -2 9 C-1.125 1.125 -1.125 1.125 0 0 Z " fill="#5B5046" transform="translate(130,149)"/>
<path d="M0 0 C0.66 0 1.32 0 2 0 C1.1875 2.9375 1.1875 2.9375 0 6 C-0.99 6.33 -1.98 6.66 -3 7 C-1.125 1.125 -1.125 1.125 0 0 Z " fill="#584E45" transform="translate(69,133)"/>
<path d="M0 0 C0.66 0 1.32 0 2 0 C0.125 5.75 0.125 5.75 -1 8 C-1.66 8 -2.32 8 -3 8 C-1.125 1.125 -1.125 1.125 0 0 Z " fill="#5A5046" transform="translate(85,130)"/>
<path d="M0 0 C0.99 0.33 1.98 0.66 3 1 C2.67 1.99 2.34 2.98 2 4 C1.01 4.33 0.02 4.66 -1 5 C-1.66 5.66 -2.32 6.32 -3 7 C-2.25 2.25 -2.25 2.25 0 0 Z " fill="#926654" transform="translate(58,105)"/>
<path d="M0 0 C0.66 0 1.32 0 2 0 C2 1.98 2 3.96 2 6 C0.68 6.33 -0.64 6.66 -2 7 C-1.34 4.69 -0.68 2.38 0 0 Z " fill="#836452" transform="translate(47,103)"/>
<path d="M0 0 C0.33 0 0.66 0 1 0 C1.1953125 1.98567708 1.390625 3.97135417 1.5859375 5.95703125 C1.92665391 8.29988142 1.92665391 8.29988142 4 11 C3.01 11.33 2.02 11.66 1 12 C0 11 0 11 -0.09765625 8.49609375 C-0.08605469 7.48675781 -0.07445312 6.47742188 -0.0625 5.4375 C-0.05347656 4.42558594 -0.04445312 3.41367188 -0.03515625 2.37109375 C-0.02355469 1.58863281 -0.01195312 0.80617188 0 0 Z " fill="#2F271F" transform="translate(162,78)"/>
<path d="M0 0 C0.33 0.99 0.66 1.98 1 3 C0.67 3.66 0.34 4.32 0 5 C-0.66 5 -1.32 5 -2 5 C-2.33 6.65 -2.66 8.3 -3 10 C-3.75 8.375 -3.75 8.375 -4 6 C-2.0625 2.75 -2.0625 2.75 0 0 Z " fill="#C1A88A" transform="translate(167,71)"/>
<path d="M0 0 C1.9375 0.6875 1.9375 0.6875 4 2 C4.75 4.625 4.75 4.625 5 7 C3.29115995 5.37660195 1.62553283 3.70680947 0 2 C0 1.34 0 0.68 0 0 Z " fill="#61554A" transform="translate(87,35)"/>
<path d="M0 0 C0.33 0.99 0.66 1.98 1 3 C1.66 3.33 2.32 3.66 3 4 C-1.75 5.125 -1.75 5.125 -4 4 C-4 3.34 -4 2.68 -4 2 C-2.68 1.34 -1.36 0.68 0 0 Z " fill="#2A2722" transform="translate(64,30)"/>
<path d="M0 0 C2.31 0 4.62 0 7 0 C7 0.66 7 1.32 7 2 C4.69 2.33 2.38 2.66 0 3 C0 2.01 0 1.02 0 0 Z " fill="#0A0806" transform="translate(136,6)"/>
<path d="M0 0 C0.33 0.99 0.66 1.98 1 3 C-3.455 3.495 -3.455 3.495 -8 4 C-5.33440687 2.22293791 -2.9719385 1.12451727 0 0 Z " fill="#26221D" transform="translate(128,93)"/>
<path d="M0 0 C0.66 0 1.32 0 2 0 C2 1.65 2 3.3 2 5 C2.99 4.67 3.98 4.34 5 4 C5.33 5.32 5.66 6.64 6 8 C3.5625 7.375 3.5625 7.375 1 6 C0.1875 2.875 0.1875 2.875 0 0 Z " fill="#2E2A26" transform="translate(24,65)"/>
<path d="M0 0 C2.49361571 1.20381448 4.68143083 2.45428722 7 4 C7 4.66 7 5.32 7 6 C4 6 4 6 1.8125 4.125 C0 2 0 2 0 0 Z " fill="#5E5349" transform="translate(64,62)"/>
<path d="M0 0 C3 1 3 1 5 4 C4.67 4.99 4.34 5.98 4 7 C2 5.1875 2 5.1875 0 3 C0 2.01 0 1.02 0 0 Z " fill="#5C5147" transform="translate(73,39)"/>
<path d="M0 0 C-0.8125 1.9375 -0.8125 1.9375 -2 4 C-2.99 4.33 -3.98 4.66 -5 5 C-5 4.01 -5 3.02 -5 2 C-2 0 -2 0 0 0 Z " fill="#FF3810" transform="translate(162,154)"/>
<path d="M0 0 C1.65 0 3.3 0 5 0 C4.67 0.99 4.34 1.98 4 3 C2.35 2.67 0.7 2.34 -1 2 C-0.67 1.34 -0.34 0.68 0 0 Z " fill="#794A23" transform="translate(180,124)"/>
<path d="M0 0 C0.66 0.66 1.32 1.32 2 2 C0.35 2.66 -1.3 3.32 -3 4 C-2.67 3.01 -2.34 2.02 -2 1 C-1.34 0.67 -0.68 0.34 0 0 Z " fill="#F42607" transform="translate(136,174)"/>
<path d="M0 0 C0.66 0.33 1.32 0.66 2 1 C1.01 2.485 1.01 2.485 0 4 C-0.66 4 -1.32 4 -2 4 C-1.34 2.68 -0.68 1.36 0 0 Z " fill="#FF0000" transform="translate(167,146)"/>
<path d="M0 0 C0.66 0 1.32 0 2 0 C1.34 1.32 0.68 2.64 0 4 C0 2.68 0 1.36 0 0 Z " fill="#FF1A00" transform="translate(172,143)"/>
<path d="M0 0 C0.66 0 1.32 0 2 0 C1.67 0.99 1.34 1.98 1 3 C0.67 2.01 0.34 1.02 0 0 Z " fill="#FFB200" transform="translate(8,141)"/>
<path d="M0 0 C0.66 0 1.32 0 2 0 C2 0.66 2 1.32 2 2 C1.34 2 0.68 2 0 2 C0 1.34 0 0.68 0 0 Z " fill="#000000" transform="translate(2,97)"/>
<path d="M0 0 C0.99 0.495 0.99 0.495 2 1 C1.01 1.495 1.01 1.495 0 2 C0 1.34 0 0.68 0 0 Z " fill="#000000" transform="translate(188,122)"/>
<path d="" fill="#FFFF00" transform="translate(0,0)"/>
<path d="" fill="#FF0000" transform="translate(0,0)"/>
</svg>
